M48
; DRILL file {KiCad 7.0.11} date Thu Apr 18 20:59:42 2024
; FORMAT={-:-/ absolute / metric / decimal}
; #@! TF.CreationDate,2024-04-18T20:59:42+08:00
; #@! TF.GenerationSoftware,Kicad,Pcbnew,7.0.11
; #@! TF.FileFunction,MixedPlating,1,2
FMAT,2
METRIC
; #@! TA.AperFunction,Plated,PTH,ViaDrill
T1C0.300
; #@! TA.AperFunction,Plated,PTH,ViaDrill
T2C0.400
; #@! TA.AperFunction,Plated,PTH,ComponentDrill
T3C0.600
; #@! TA.AperFunction,Plated,PTH,ComponentDrill
T4C1.000
; #@! TA.AperFunction,Plated,PTH,ComponentDrill
T5C1.200
; #@! TA.AperFunction,NonPlated,NPTH,ComponentDrill
T6C0.650
%
G90
G05
T1
X2.899Y-9.422
X2.899Y-10.422
X8.34Y-8.68
X8.34Y-10.88
X8.439Y-16.652
X9.39Y-11.87
X9.743Y-6.537
X10.819Y-16.652
X10.97Y-3.93
X13.12Y-11.37
X13.459Y-16.652
X13.53Y-7.62
X13.54Y-3.95
X14.41Y-7.62
X15.199Y-14.472
X15.929Y-16.652
X16.1Y-5.79
X16.18Y-3.78
X16.87Y-5.8
X16.928Y-4.315
X17.499Y-10.252
X18.379Y-16.652
X20.959Y-8.072
X21.635Y-11.165
X22.7Y-7.442
X23.357Y-6.63
X24.029Y-16.652
X24.4Y-10.62
X26.08Y-3.82
X27.03Y-9.468
X27.99Y-10.81
X28.55Y-10.19
X28.93Y-15.34
X29.329Y-7.442
X29.35Y-10.19
X29.35Y-11.26
X29.35Y-13.32
X29.94Y-7.99
X30.04Y-12.5
X30.43Y-10.19
X31.33Y-16.71
X31.401Y-11.866
X32.109Y-4.202
X33.09Y-14.81
X34.349Y-12.682
X35.139Y-9.462
X35.149Y-11.082
X35.15Y-12.18
X36.699Y-16.872
X36.8Y-7.62
X39.993Y-16.337
X42.469Y-7.162
X42.469Y-15.392
X42.639Y-5.812
X43.7Y-10.18
X44.389Y-3.322
X45.23Y-13.16
X46.409Y-15.392
X46.909Y-3.322
X47.93Y-8.03
X49.467Y-3.322
X52.024Y-3.322
X52.15Y-12.0
X53.139Y-15.512
X54.582Y-3.322
X55.52Y-9.41
X55.54Y-15.36
X56.06Y-10.19
X56.09Y-7.68
X57.139Y-3.322
X57.18Y-10.19
X58.04Y-7.68
X58.3Y-10.19
X58.31Y-12.59
X58.96Y-7.68
X59.42Y-10.19
X59.43Y-12.59
X60.54Y-10.19
X60.55Y-12.59
X61.66Y-10.19
X61.67Y-12.59
T2
X6.169Y-7.762
X6.169Y-12.562
X15.783Y-12.577
T4
X1.999Y-1.342
X1.999Y-18.982
X4.539Y-1.342
X4.539Y-18.982
X7.079Y-1.342
X7.079Y-18.982
X9.619Y-1.342
X9.619Y-18.982
X12.159Y-1.342
X12.159Y-18.982
X14.699Y-1.342
X14.699Y-18.982
X17.239Y-1.342
X17.239Y-18.982
X19.779Y-1.342
X19.779Y-18.982
X22.319Y-1.342
X22.319Y-18.982
X24.859Y-1.342
X24.859Y-18.982
X27.399Y-1.342
X27.399Y-18.982
X29.939Y-1.342
X29.939Y-18.982
X32.479Y-1.342
X32.479Y-18.982
X35.019Y-1.342
X35.019Y-18.982
X37.559Y-1.342
X37.559Y-18.982
X40.099Y-1.342
X40.099Y-18.982
X42.639Y-1.342
X42.639Y-18.982
X45.179Y-1.342
X45.179Y-18.982
X47.719Y-1.342
X47.719Y-18.982
X50.259Y-1.342
X50.259Y-18.982
X52.799Y-1.342
X52.799Y-18.982
X55.339Y-1.342
X55.339Y-18.982
X57.879Y-1.342
X57.879Y-18.982
X60.419Y-1.342
X60.419Y-18.982
X63.96Y-6.367
X63.96Y-8.907
X63.96Y-11.447
X63.96Y-13.987
T5
X-0.97Y-18.13
X-0.921Y-2.19
X63.29Y-18.13
X63.339Y-2.19
T6
X2.568Y-7.282
X2.568Y-13.062
T3
G00X-0.682Y-5.847
M15
G01X-1.582Y-5.847
M16
G05
G00X-0.682Y-14.497
M15
G01X-1.582Y-14.497
M16
G05
G00X3.668Y-5.847
M15
G01X2.468Y-5.847
M16
G05
G00X3.668Y-14.497
M15
G01X2.468Y-14.497
M16
G05
M30
