%TF.GenerationSoftware,KiCad,Pcbnew,7.0.11*%
%TF.CreationDate,2024-04-12T15:17:44+08:00*%
%TF.ProjectId,UINIO-MCU-STM32F103C8T6,55494e49-4f2d-44d4-9355-2d53544d3332,Version 3.1.0*%
%TF.SameCoordinates,PX72c1710PY5584170*%
%TF.FileFunction,Legend,Bot*%
%TF.FilePolarity,Positive*%
%FSLAX46Y46*%
G04 Gerber Fmt 4.6, Leading zero omitted, Abs format (unit mm)*
G04 Created by KiCad (PCBNEW 7.0.11) date 2024-04-12 15:17:44*
%MOMM*%
%LPD*%
G01*
G04 APERTURE LIST*
%ADD10C,0.187500*%
%ADD11C,0.300000*%
%ADD12C,0.100000*%
%ADD13C,0.120000*%
%ADD14R,1.700000X1.700000*%
%ADD15O,1.700000X1.700000*%
%ADD16C,1.200000*%
%ADD17C,0.650000*%
%ADD18O,2.100000X1.000000*%
%ADD19O,1.900000X1.000000*%
G04 APERTURE END LIST*
D10*
G36*
X23603911Y-11814806D02*
G01*
X23293063Y-10918776D01*
X22936493Y-10918776D01*
X23421022Y-12199000D01*
X23786800Y-12199000D01*
X24271646Y-10918776D01*
X23914759Y-10918776D01*
X23603911Y-11814806D01*
G37*
G36*
X22667325Y-11211830D02*
G01*
X22683775Y-11212741D01*
X22699761Y-11214261D01*
X22715284Y-11216388D01*
X22730342Y-11219122D01*
X22744937Y-11222465D01*
X22759067Y-11226415D01*
X22772734Y-11230974D01*
X22785937Y-11236139D01*
X22798676Y-11241913D01*
X22810951Y-11248294D01*
X22822763Y-11255283D01*
X22834110Y-11262880D01*
X22844994Y-11271085D01*
X22855414Y-11279897D01*
X22865369Y-11289317D01*
X22874789Y-11299234D01*
X22883602Y-11309618D01*
X22891806Y-11320468D01*
X22899403Y-11331785D01*
X22906392Y-11343568D01*
X22912773Y-11355817D01*
X22918547Y-11368532D01*
X22923713Y-11381714D01*
X22928271Y-11395362D01*
X22932221Y-11409477D01*
X22935564Y-11424058D01*
X22938299Y-11439105D01*
X22940426Y-11454619D01*
X22941945Y-11470599D01*
X22942857Y-11487045D01*
X22943161Y-11503958D01*
X22943161Y-11943082D01*
X22942868Y-11958409D01*
X22941990Y-11973355D01*
X22940526Y-11987919D01*
X22938477Y-12002100D01*
X22935843Y-12015900D01*
X22932623Y-12029317D01*
X22928818Y-12042353D01*
X22924427Y-12055006D01*
X22919451Y-12067278D01*
X22913890Y-12079167D01*
X22907743Y-12090675D01*
X22901011Y-12101800D01*
X22893693Y-12112543D01*
X22885790Y-12122905D01*
X22877301Y-12132884D01*
X22868227Y-12142482D01*
X22858630Y-12151556D01*
X22848650Y-12160044D01*
X22838289Y-12167947D01*
X22827545Y-12175265D01*
X22816420Y-12181998D01*
X22804912Y-12188144D01*
X22793023Y-12193706D01*
X22780751Y-12198682D01*
X22768098Y-12203073D01*
X22755062Y-12206878D01*
X22741645Y-12210098D01*
X22727845Y-12212732D01*
X22713664Y-12214781D01*
X22699100Y-12216245D01*
X22684155Y-12217123D01*
X22668827Y-12217415D01*
X22650804Y-12217379D01*
X22632653Y-12217272D01*
X22614374Y-12217092D01*
X22595967Y-12216840D01*
X22577433Y-12216516D01*
X22558771Y-12216121D01*
X22539981Y-12215653D01*
X22521063Y-12215113D01*
X22502018Y-12214502D01*
X22482845Y-12213819D01*
X22463544Y-12213063D01*
X22444115Y-12212236D01*
X22424559Y-12211337D01*
X22404875Y-12210366D01*
X22385063Y-12209322D01*
X22365123Y-12208207D01*
X22345056Y-12207020D01*
X22324861Y-12205762D01*
X22304538Y-12204431D01*
X22284087Y-12203028D01*
X22263509Y-12201553D01*
X22242803Y-12200007D01*
X22221969Y-12198388D01*
X22201007Y-12196698D01*
X22179918Y-12194935D01*
X22158701Y-12193101D01*
X22137356Y-12191194D01*
X22115883Y-12189216D01*
X22094283Y-12187166D01*
X22072555Y-12185044D01*
X22050699Y-12182850D01*
X22028715Y-12180584D01*
X22028715Y-11951972D01*
X22050380Y-11953672D01*
X22071717Y-11955317D01*
X22092724Y-11956909D01*
X22113403Y-11958447D01*
X22133753Y-11959930D01*
X22153775Y-11961360D01*
X22173467Y-11962736D01*
X22192831Y-11964058D01*
X22211867Y-11965326D01*
X22230574Y-11966540D01*
X22248952Y-11967700D01*
X22267001Y-11968806D01*
X22284722Y-11969858D01*
X22302114Y-11970856D01*
X22319177Y-11971800D01*
X22335912Y-11972690D01*
X22352318Y-11973526D01*
X22368395Y-11974309D01*
X22384144Y-11975037D01*
X22399564Y-11975712D01*
X22414655Y-11976332D01*
X22429418Y-11976899D01*
X22443852Y-11977411D01*
X22457957Y-11977870D01*
X22471734Y-11978274D01*
X22485182Y-11978625D01*
X22498301Y-11978922D01*
X22511091Y-11979165D01*
X22535686Y-11979488D01*
X22558967Y-11979596D01*
X22567283Y-11979154D01*
X22581158Y-11976132D01*
X22593627Y-11970246D01*
X22604689Y-11961498D01*
X22610948Y-11954268D01*
X22617907Y-11942210D01*
X22621954Y-11928694D01*
X22623105Y-11915458D01*
X22623105Y-11842429D01*
X21991884Y-11842429D01*
X21991884Y-11613818D01*
X22311940Y-11613818D01*
X22623105Y-11613818D01*
X22623105Y-11513166D01*
X22623033Y-11508673D01*
X22621314Y-11492127D01*
X22617303Y-11477864D01*
X22611000Y-11465882D01*
X22602405Y-11456183D01*
X22591517Y-11448766D01*
X22578338Y-11443632D01*
X22562867Y-11440779D01*
X22549759Y-11440137D01*
X22385286Y-11440137D01*
X22380773Y-11440208D01*
X22364156Y-11441920D01*
X22349830Y-11445914D01*
X22337797Y-11452190D01*
X22328056Y-11460748D01*
X22320606Y-11471588D01*
X22315449Y-11484710D01*
X22312584Y-11500115D01*
X22311940Y-11513166D01*
X22311940Y-11613818D01*
X21991884Y-11613818D01*
X21991884Y-11503958D01*
X21992188Y-11487045D01*
X21993099Y-11470599D01*
X21994619Y-11454619D01*
X21996746Y-11439105D01*
X21999480Y-11424058D01*
X22002823Y-11409477D01*
X22006773Y-11395362D01*
X22011332Y-11381714D01*
X22016497Y-11368532D01*
X22022271Y-11355817D01*
X22028652Y-11343568D01*
X22035641Y-11331785D01*
X22043238Y-11320468D01*
X22051443Y-11309618D01*
X22060255Y-11299234D01*
X22069675Y-11289317D01*
X22079631Y-11279897D01*
X22090051Y-11271085D01*
X22100934Y-11262880D01*
X22112282Y-11255283D01*
X22124093Y-11248294D01*
X22136368Y-11241913D01*
X22149107Y-11236139D01*
X22162310Y-11230974D01*
X22175977Y-11226415D01*
X22190108Y-11222465D01*
X22204702Y-11219122D01*
X22219761Y-11216388D01*
X22235283Y-11214261D01*
X22251269Y-11212741D01*
X22267719Y-11211830D01*
X22284633Y-11211526D01*
X22650411Y-11211526D01*
X22667325Y-11211830D01*
G37*
G36*
X21275886Y-11494750D02*
G01*
X21290322Y-11494964D01*
X21304814Y-11495608D01*
X21319364Y-11496681D01*
X21333971Y-11498183D01*
X21348635Y-11500114D01*
X21363356Y-11502474D01*
X21378135Y-11505264D01*
X21392970Y-11508482D01*
X21407862Y-11512130D01*
X21422811Y-11516207D01*
X21437818Y-11520713D01*
X21452881Y-11525648D01*
X21468001Y-11531012D01*
X21483179Y-11536806D01*
X21498413Y-11543028D01*
X21513705Y-11549680D01*
X21513705Y-12199000D01*
X21833761Y-12199000D01*
X21833761Y-11229624D01*
X21550219Y-11229624D01*
X21532121Y-11348692D01*
X21522264Y-11340253D01*
X21512379Y-11332082D01*
X21492526Y-11316544D01*
X21472561Y-11302077D01*
X21452484Y-11288682D01*
X21432296Y-11276358D01*
X21411996Y-11265106D01*
X21391584Y-11254926D01*
X21371061Y-11245817D01*
X21350426Y-11237780D01*
X21329680Y-11230815D01*
X21308822Y-11224921D01*
X21287852Y-11220099D01*
X21266771Y-11216348D01*
X21245578Y-11213669D01*
X21224273Y-11212061D01*
X21202857Y-11211526D01*
X21120621Y-11211526D01*
X21120621Y-11494750D01*
X21275886Y-11494750D01*
G37*
G36*
X21033304Y-11943082D02*
G01*
X21010259Y-11944762D01*
X20987521Y-11946388D01*
X20965090Y-11947962D01*
X20942966Y-11949482D01*
X20921148Y-11950948D01*
X20899638Y-11952362D01*
X20878435Y-11953722D01*
X20857539Y-11955028D01*
X20836950Y-11956282D01*
X20816668Y-11957482D01*
X20796692Y-11958628D01*
X20777024Y-11959722D01*
X20757663Y-11960762D01*
X20738608Y-11961748D01*
X20719861Y-11962682D01*
X20701420Y-11963562D01*
X20683287Y-11964388D01*
X20665461Y-11965162D01*
X20647941Y-11965882D01*
X20630729Y-11966548D01*
X20613823Y-11967162D01*
X20597224Y-11967722D01*
X20580933Y-11968228D01*
X20564948Y-11968682D01*
X20549271Y-11969082D01*
X20533900Y-11969428D01*
X20518836Y-11969722D01*
X20504080Y-11969962D01*
X20489630Y-11970148D01*
X20475487Y-11970282D01*
X20461651Y-11970362D01*
X20448122Y-11970388D01*
X20435025Y-11969257D01*
X20421618Y-11965280D01*
X20409619Y-11958440D01*
X20402400Y-11952290D01*
X20393498Y-11941202D01*
X20387509Y-11928658D01*
X20384632Y-11916285D01*
X20383984Y-11906250D01*
X20383984Y-11842429D01*
X20777386Y-11842429D01*
X20792714Y-11842137D01*
X20807659Y-11841259D01*
X20822223Y-11839795D01*
X20836404Y-11837746D01*
X20850204Y-11835112D01*
X20863621Y-11831892D01*
X20876657Y-11828087D01*
X20889310Y-11823696D01*
X20901582Y-11818720D01*
X20913471Y-11813158D01*
X20924979Y-11807011D01*
X20936104Y-11800279D01*
X20946848Y-11792961D01*
X20957209Y-11785058D01*
X20967189Y-11776570D01*
X20976786Y-11767496D01*
X20985860Y-11757898D01*
X20994349Y-11747919D01*
X21002252Y-11737557D01*
X21009569Y-11726814D01*
X21016302Y-11715689D01*
X21022449Y-11704181D01*
X21028010Y-11692292D01*
X21032986Y-11680020D01*
X21037377Y-11667367D01*
X21041182Y-11654331D01*
X21044402Y-11640914D01*
X21047036Y-11627114D01*
X21049085Y-11612932D01*
X21050549Y-11598369D01*
X21051427Y-11583423D01*
X21051720Y-11568096D01*
X21051720Y-11503958D01*
X21051427Y-11488631D01*
X21050549Y-11473689D01*
X21049085Y-11459132D01*
X21047036Y-11444959D01*
X21044402Y-11431171D01*
X21041182Y-11417767D01*
X21037377Y-11404748D01*
X21032986Y-11392113D01*
X21028010Y-11379862D01*
X21022449Y-11367996D01*
X21016302Y-11356515D01*
X21009569Y-11345418D01*
X21002252Y-11334706D01*
X20994349Y-11324378D01*
X20985860Y-11314434D01*
X20976786Y-11304875D01*
X20967189Y-11295763D01*
X20957209Y-11287238D01*
X20946848Y-11279302D01*
X20936104Y-11271953D01*
X20924979Y-11265192D01*
X20913471Y-11259019D01*
X20901582Y-11253434D01*
X20889310Y-11248437D01*
X20876657Y-11244028D01*
X20863621Y-11240206D01*
X20850204Y-11236973D01*
X20836404Y-11234327D01*
X20822223Y-11232270D01*
X20807659Y-11230800D01*
X20792714Y-11229918D01*
X20777386Y-11229624D01*
X20155373Y-11229624D01*
X20155373Y-11467443D01*
X20667526Y-11467443D01*
X20680762Y-11468594D01*
X20694277Y-11472641D01*
X20706336Y-11479601D01*
X20713565Y-11485859D01*
X20722314Y-11496793D01*
X20728200Y-11509234D01*
X20731222Y-11523182D01*
X20731664Y-11531581D01*
X20730533Y-11544679D01*
X20726556Y-11558085D01*
X20719716Y-11570085D01*
X20713565Y-11577304D01*
X20702478Y-11586052D01*
X20689934Y-11591938D01*
X20675933Y-11594960D01*
X20667526Y-11595402D01*
X20338262Y-11595402D01*
X20322936Y-11595696D01*
X20307994Y-11596578D01*
X20293436Y-11598048D01*
X20279264Y-11600105D01*
X20265475Y-11602751D01*
X20252071Y-11605984D01*
X20239052Y-11609806D01*
X20226417Y-11614215D01*
X20214167Y-11619212D01*
X20202301Y-11624797D01*
X20190819Y-11630970D01*
X20179722Y-11637731D01*
X20169010Y-11645080D01*
X20158682Y-11653016D01*
X20148739Y-11661541D01*
X20139180Y-11670653D01*
X20130067Y-11680212D01*
X20121543Y-11690156D01*
X20113606Y-11700484D01*
X20106257Y-11711196D01*
X20099496Y-11722293D01*
X20093323Y-11733775D01*
X20087738Y-11745640D01*
X20082741Y-11757891D01*
X20078332Y-11770526D01*
X20074511Y-11783545D01*
X20071277Y-11796949D01*
X20068632Y-11810737D01*
X20066574Y-11824910D01*
X20065104Y-11839468D01*
X20064222Y-11854409D01*
X20063928Y-11869736D01*
X20063928Y-11943082D01*
X20064222Y-11958409D01*
X20065104Y-11973355D01*
X20066574Y-11987919D01*
X20068632Y-12002100D01*
X20071277Y-12015900D01*
X20074511Y-12029317D01*
X20078332Y-12042353D01*
X20082741Y-12055006D01*
X20087738Y-12067278D01*
X20093323Y-12079167D01*
X20099496Y-12090675D01*
X20106257Y-12101800D01*
X20113606Y-12112543D01*
X20121543Y-12122905D01*
X20130067Y-12132884D01*
X20139180Y-12142482D01*
X20148739Y-12151556D01*
X20158682Y-12160044D01*
X20169010Y-12167947D01*
X20179722Y-12175265D01*
X20190819Y-12181998D01*
X20202301Y-12188144D01*
X20214167Y-12193706D01*
X20226417Y-12198682D01*
X20239052Y-12203073D01*
X20252071Y-12206878D01*
X20265475Y-12210098D01*
X20279264Y-12212732D01*
X20293436Y-12214781D01*
X20307994Y-12216245D01*
X20322936Y-12217123D01*
X20338262Y-12217415D01*
X20358550Y-12217379D01*
X20378930Y-12217272D01*
X20399403Y-12217092D01*
X20419968Y-12216840D01*
X20440625Y-12216516D01*
X20461375Y-12216121D01*
X20482217Y-12215653D01*
X20503152Y-12215113D01*
X20524179Y-12214502D01*
X20545298Y-12213819D01*
X20566510Y-12213063D01*
X20587814Y-12212236D01*
X20609211Y-12211337D01*
X20630700Y-12210366D01*
X20652282Y-12209322D01*
X20673955Y-12208207D01*
X20695722Y-12207020D01*
X20717580Y-12205762D01*
X20739531Y-12204431D01*
X20761575Y-12203028D01*
X20783711Y-12201553D01*
X20805939Y-12200007D01*
X20828260Y-12198388D01*
X20850673Y-12196698D01*
X20873178Y-12194935D01*
X20895776Y-12193101D01*
X20918466Y-12191194D01*
X20941249Y-12189216D01*
X20964124Y-12187166D01*
X20987092Y-12185044D01*
X21010151Y-12182850D01*
X21033304Y-12180584D01*
X21033304Y-11943082D01*
G37*
G36*
X19556856Y-11266138D02*
G01*
X19556856Y-12199000D01*
X19876912Y-12199000D01*
X19876912Y-11513166D01*
X20014078Y-11513166D01*
X20014078Y-11266138D01*
X19556856Y-11266138D01*
G37*
G36*
X19876912Y-10900360D02*
G01*
X19556856Y-10900360D01*
X19556856Y-11156595D01*
X19876912Y-11156595D01*
X19876912Y-10900360D01*
G37*
G36*
X19120040Y-11211830D02*
G01*
X19136490Y-11212741D01*
X19152476Y-11214261D01*
X19167998Y-11216388D01*
X19183057Y-11219122D01*
X19197651Y-11222465D01*
X19211782Y-11226415D01*
X19225449Y-11230974D01*
X19238652Y-11236139D01*
X19251391Y-11241913D01*
X19263666Y-11248294D01*
X19275477Y-11255283D01*
X19286825Y-11262880D01*
X19297708Y-11271085D01*
X19308128Y-11279897D01*
X19318084Y-11289317D01*
X19327504Y-11299234D01*
X19336316Y-11309618D01*
X19344521Y-11320468D01*
X19352118Y-11331785D01*
X19359107Y-11343568D01*
X19365488Y-11355817D01*
X19371262Y-11368532D01*
X19376427Y-11381714D01*
X19380986Y-11395362D01*
X19384936Y-11409477D01*
X19388278Y-11424058D01*
X19391013Y-11439105D01*
X19393140Y-11454619D01*
X19394660Y-11470599D01*
X19395571Y-11487045D01*
X19395875Y-11503958D01*
X19395875Y-11924666D01*
X19395571Y-11941580D01*
X19394660Y-11958030D01*
X19393140Y-11974016D01*
X19391013Y-11989538D01*
X19388278Y-12004597D01*
X19384936Y-12019191D01*
X19380986Y-12033322D01*
X19376427Y-12046989D01*
X19371262Y-12060192D01*
X19365488Y-12072931D01*
X19359107Y-12085206D01*
X19352118Y-12097017D01*
X19344521Y-12108365D01*
X19336316Y-12119248D01*
X19327504Y-12129668D01*
X19318084Y-12139624D01*
X19308128Y-12149044D01*
X19297708Y-12157856D01*
X19286825Y-12166061D01*
X19275477Y-12173658D01*
X19263666Y-12180647D01*
X19251391Y-12187028D01*
X19238652Y-12192802D01*
X19225449Y-12197968D01*
X19211782Y-12202526D01*
X19197651Y-12206476D01*
X19183057Y-12209819D01*
X19167998Y-12212553D01*
X19152476Y-12214681D01*
X19136490Y-12216200D01*
X19120040Y-12217112D01*
X19103126Y-12217415D01*
X18682418Y-12217415D01*
X18665505Y-12217112D01*
X18649059Y-12216200D01*
X18633079Y-12214681D01*
X18617565Y-12212553D01*
X18602518Y-12209819D01*
X18587937Y-12206476D01*
X18573822Y-12202526D01*
X18560174Y-12197968D01*
X18546992Y-12192802D01*
X18534277Y-12187028D01*
X18522027Y-12180647D01*
X18510245Y-12173658D01*
X18498928Y-12166061D01*
X18488078Y-12157856D01*
X18477694Y-12149044D01*
X18467777Y-12139624D01*
X18458357Y-12129668D01*
X18449545Y-12119248D01*
X18441340Y-12108365D01*
X18433743Y-12097017D01*
X18426754Y-12085206D01*
X18420373Y-12072931D01*
X18414599Y-12060192D01*
X18409433Y-12046989D01*
X18404875Y-12033322D01*
X18400925Y-12019191D01*
X18397582Y-12004597D01*
X18394848Y-11989538D01*
X18392720Y-11974016D01*
X18391201Y-11958030D01*
X18390289Y-11941580D01*
X18389986Y-11924666D01*
X18389986Y-11897360D01*
X18710041Y-11897360D01*
X18710113Y-11901853D01*
X18711824Y-11918398D01*
X18715818Y-11932662D01*
X18722094Y-11944643D01*
X18730652Y-11954342D01*
X18741492Y-11961759D01*
X18754615Y-11966894D01*
X18770019Y-11969746D01*
X18783070Y-11970388D01*
X19002473Y-11970388D01*
X19006986Y-11970317D01*
X19023603Y-11968605D01*
X19037929Y-11964612D01*
X19049962Y-11958336D01*
X19059703Y-11949778D01*
X19067153Y-11938937D01*
X19072310Y-11925815D01*
X19075175Y-11910411D01*
X19075819Y-11897360D01*
X19075819Y-11531581D01*
X19075748Y-11527069D01*
X19074029Y-11510452D01*
X19070018Y-11496126D01*
X19063714Y-11484093D01*
X19055119Y-11474351D01*
X19044232Y-11466902D01*
X19031053Y-11461745D01*
X19015581Y-11458880D01*
X19002473Y-11458235D01*
X18783070Y-11458235D01*
X18778577Y-11458307D01*
X18762031Y-11460026D01*
X18747768Y-11464037D01*
X18735787Y-11470340D01*
X18726088Y-11478936D01*
X18718671Y-11489823D01*
X18713536Y-11503002D01*
X18710683Y-11518474D01*
X18710041Y-11531581D01*
X18710041Y-11897360D01*
X18389986Y-11897360D01*
X18389986Y-11503958D01*
X18390289Y-11487045D01*
X18391201Y-11470599D01*
X18392720Y-11454619D01*
X18394848Y-11439105D01*
X18397582Y-11424058D01*
X18400925Y-11409477D01*
X18404875Y-11395362D01*
X18409433Y-11381714D01*
X18414599Y-11368532D01*
X18420373Y-11355817D01*
X18426754Y-11343568D01*
X18433743Y-11331785D01*
X18441340Y-11320468D01*
X18449545Y-11309618D01*
X18458357Y-11299234D01*
X18467777Y-11289317D01*
X18477694Y-11279897D01*
X18488078Y-11271085D01*
X18498928Y-11262880D01*
X18510245Y-11255283D01*
X18522027Y-11248294D01*
X18534277Y-11241913D01*
X18546992Y-11236139D01*
X18560174Y-11230974D01*
X18573822Y-11226415D01*
X18587937Y-11222465D01*
X18602518Y-11219122D01*
X18617565Y-11216388D01*
X18633079Y-11214261D01*
X18649059Y-11212741D01*
X18665505Y-11211830D01*
X18682418Y-11211526D01*
X19103126Y-11211526D01*
X19120040Y-11211830D01*
G37*
G36*
X17692404Y-11476651D02*
G01*
X17710788Y-11476972D01*
X17729624Y-11477935D01*
X17742432Y-11478933D01*
X17755442Y-11480217D01*
X17768652Y-11481786D01*
X17782063Y-11483640D01*
X17795676Y-11485780D01*
X17809489Y-11488205D01*
X17823503Y-11490915D01*
X17837718Y-11493910D01*
X17852134Y-11497191D01*
X17866751Y-11500756D01*
X17881569Y-11504608D01*
X17896587Y-11508744D01*
X17911807Y-11513166D01*
X17911807Y-12199000D01*
X18231863Y-12199000D01*
X18231863Y-11229624D01*
X17948321Y-11229624D01*
X17930223Y-11321069D01*
X17919450Y-11314122D01*
X17908642Y-11307410D01*
X17892365Y-11297785D01*
X17876009Y-11288691D01*
X17859576Y-11280126D01*
X17843065Y-11272092D01*
X17826475Y-11264588D01*
X17809807Y-11257614D01*
X17793062Y-11251170D01*
X17776238Y-11245257D01*
X17759336Y-11239874D01*
X17753684Y-11238197D01*
X17736965Y-11233431D01*
X17720743Y-11229133D01*
X17705018Y-11225304D01*
X17689789Y-11221944D01*
X17675057Y-11219053D01*
X17660822Y-11216631D01*
X17647083Y-11214677D01*
X17633842Y-11213193D01*
X17621097Y-11212177D01*
X17604876Y-11211552D01*
X17600959Y-11211526D01*
X17518722Y-11211526D01*
X17503358Y-11211818D01*
X17488380Y-11212697D01*
X17473789Y-11214160D01*
X17459585Y-11216209D01*
X17445768Y-11218843D01*
X17432338Y-11222063D01*
X17419295Y-11225868D01*
X17406639Y-11230259D01*
X17394370Y-11235235D01*
X17382488Y-11240797D01*
X17370993Y-11246944D01*
X17359885Y-11253676D01*
X17349164Y-11260994D01*
X17338830Y-11268897D01*
X17328883Y-11277385D01*
X17319323Y-11286459D01*
X17310249Y-11296020D01*
X17301760Y-11305967D01*
X17293857Y-11316301D01*
X17286539Y-11327022D01*
X17279807Y-11338130D01*
X17273660Y-11349625D01*
X17268098Y-11361507D01*
X17263122Y-11373776D01*
X17258732Y-11386432D01*
X17254926Y-11399475D01*
X17251707Y-11412905D01*
X17249072Y-11426722D01*
X17247023Y-11440926D01*
X17245560Y-11455517D01*
X17244682Y-11470494D01*
X17244389Y-11485859D01*
X17244389Y-12199000D01*
X17564445Y-12199000D01*
X17564445Y-11540472D01*
X17565596Y-11527394D01*
X17569642Y-11514058D01*
X17576602Y-11502178D01*
X17582861Y-11495067D01*
X17593769Y-11486165D01*
X17606135Y-11480176D01*
X17619957Y-11477101D01*
X17628265Y-11476651D01*
X17692404Y-11476651D01*
G37*
G36*
X15918443Y-12217415D02*
G01*
X15937598Y-12217379D01*
X15956881Y-12217272D01*
X15976293Y-12217092D01*
X15995833Y-12216840D01*
X16015501Y-12216516D01*
X16035298Y-12216121D01*
X16055223Y-12215653D01*
X16075276Y-12215113D01*
X16095458Y-12214502D01*
X16115768Y-12213819D01*
X16136207Y-12213063D01*
X16156774Y-12212236D01*
X16177469Y-12211337D01*
X16198293Y-12210366D01*
X16219245Y-12209322D01*
X16240325Y-12208207D01*
X16261534Y-12207020D01*
X16282871Y-12205762D01*
X16304336Y-12204431D01*
X16325930Y-12203028D01*
X16347652Y-12201553D01*
X16369503Y-12200007D01*
X16391482Y-12198388D01*
X16413589Y-12196698D01*
X16435825Y-12194935D01*
X16458189Y-12193101D01*
X16480681Y-12191194D01*
X16503302Y-12189216D01*
X16526051Y-12187166D01*
X16548929Y-12185044D01*
X16571935Y-12182850D01*
X16595069Y-12180584D01*
X16595069Y-11933874D01*
X16570007Y-11935554D01*
X16545345Y-11937181D01*
X16521082Y-11938754D01*
X16497220Y-11940274D01*
X16473758Y-11941740D01*
X16450695Y-11943154D01*
X16428033Y-11944514D01*
X16405770Y-11945820D01*
X16383908Y-11947074D01*
X16362446Y-11948274D01*
X16341383Y-11949420D01*
X16320721Y-11950514D01*
X16300458Y-11951554D01*
X16280596Y-11952540D01*
X16261134Y-11953474D01*
X16242071Y-11954354D01*
X16223409Y-11955180D01*
X16205146Y-11955954D01*
X16187284Y-11956674D01*
X16169822Y-11957340D01*
X16152759Y-11957954D01*
X16136097Y-11958514D01*
X16119834Y-11959020D01*
X16103972Y-11959474D01*
X16088509Y-11959874D01*
X16073447Y-11960220D01*
X16058784Y-11960514D01*
X16044522Y-11960754D01*
X16030659Y-11960940D01*
X16017197Y-11961074D01*
X16004134Y-11961154D01*
X15991472Y-11961180D01*
X15976358Y-11960321D01*
X15962449Y-11957742D01*
X15949746Y-11953445D01*
X15938248Y-11947428D01*
X15927956Y-11939692D01*
X15924794Y-11936732D01*
X15916377Y-11926830D01*
X15909702Y-11915701D01*
X15904768Y-11903344D01*
X15901575Y-11889759D01*
X15900124Y-11874946D01*
X15900027Y-11869736D01*
X15900027Y-11796707D01*
X15900457Y-11783404D01*
X15902710Y-11765058D01*
X15906894Y-11748643D01*
X15913009Y-11734160D01*
X15921055Y-11721607D01*
X15931033Y-11710986D01*
X15942942Y-11702296D01*
X15956782Y-11695537D01*
X15972552Y-11690709D01*
X15990255Y-11687812D01*
X16003129Y-11686954D01*
X16009888Y-11686847D01*
X16393764Y-11686847D01*
X16393764Y-11430929D01*
X16046402Y-11430929D01*
X16033099Y-11430500D01*
X16014753Y-11428247D01*
X15998338Y-11424063D01*
X15983855Y-11417947D01*
X15971302Y-11409901D01*
X15960681Y-11399923D01*
X15951991Y-11388015D01*
X15945232Y-11374175D01*
X15940404Y-11358404D01*
X15937507Y-11340702D01*
X15936649Y-11327828D01*
X15936542Y-11321069D01*
X15936542Y-11284554D01*
X15936971Y-11271251D01*
X15939224Y-11252905D01*
X15943408Y-11236490D01*
X15949523Y-11222007D01*
X15957570Y-11209454D01*
X15967547Y-11198833D01*
X15979456Y-11190143D01*
X15993296Y-11183384D01*
X16009067Y-11178556D01*
X16026769Y-11175659D01*
X16039643Y-11174801D01*
X16046402Y-11174694D01*
X16576653Y-11174694D01*
X16576653Y-10918776D01*
X15954958Y-10918776D01*
X15932905Y-10919095D01*
X15911597Y-10920051D01*
X15891033Y-10921645D01*
X15871213Y-10923876D01*
X15852137Y-10926745D01*
X15833806Y-10930251D01*
X15816218Y-10934395D01*
X15799375Y-10939177D01*
X15783276Y-10944595D01*
X15767921Y-10950652D01*
X15753310Y-10957346D01*
X15739444Y-10964677D01*
X15726322Y-10972646D01*
X15713943Y-10981252D01*
X15702309Y-10990496D01*
X15691420Y-11000378D01*
X15681231Y-11010871D01*
X15671699Y-11022028D01*
X15662825Y-11033851D01*
X15654608Y-11046338D01*
X15647048Y-11059490D01*
X15640146Y-11073307D01*
X15633901Y-11087789D01*
X15628313Y-11102935D01*
X15623383Y-11118747D01*
X15619110Y-11135223D01*
X15615495Y-11152364D01*
X15612537Y-11170169D01*
X15610236Y-11188640D01*
X15608593Y-11207775D01*
X15607607Y-11227575D01*
X15607278Y-11248040D01*
X15607475Y-11261573D01*
X15608067Y-11274786D01*
X15609053Y-11287679D01*
X15611271Y-11306418D01*
X15614377Y-11324437D01*
X15618371Y-11341737D01*
X15623252Y-11358316D01*
X15629020Y-11374175D01*
X15635676Y-11389315D01*
X15643219Y-11403734D01*
X15651650Y-11417433D01*
X15657763Y-11426166D01*
X15667451Y-11438666D01*
X15677703Y-11450445D01*
X15688519Y-11461504D01*
X15699898Y-11471844D01*
X15711841Y-11481463D01*
X15724348Y-11490363D01*
X15737419Y-11498542D01*
X15751053Y-11506002D01*
X15765251Y-11512741D01*
X15780013Y-11518761D01*
X15790167Y-11522374D01*
X15772043Y-11527871D01*
X15754660Y-11534280D01*
X15738019Y-11541603D01*
X15722119Y-11549839D01*
X15706962Y-11558987D01*
X15692546Y-11569048D01*
X15678872Y-11580022D01*
X15665939Y-11591909D01*
X15653748Y-11604709D01*
X15642299Y-11618422D01*
X15631591Y-11633048D01*
X15621626Y-11648586D01*
X15612402Y-11665037D01*
X15603919Y-11682401D01*
X15596179Y-11700678D01*
X15589180Y-11719868D01*
X15584863Y-11734290D01*
X15581123Y-11749298D01*
X15577957Y-11764891D01*
X15575368Y-11781069D01*
X15573353Y-11797833D01*
X15572220Y-11810790D01*
X15571411Y-11824077D01*
X15570926Y-11837692D01*
X15570764Y-11851637D01*
X15570764Y-11869736D01*
X15571092Y-11891788D01*
X15572078Y-11913096D01*
X15573722Y-11933661D01*
X15576023Y-11953480D01*
X15578981Y-11972556D01*
X15582596Y-11990888D01*
X15586869Y-12008475D01*
X15591799Y-12025318D01*
X15597387Y-12041417D01*
X15603631Y-12056772D01*
X15610534Y-12071383D01*
X15618093Y-12085250D01*
X15626310Y-12098372D01*
X15635185Y-12110750D01*
X15644716Y-12122384D01*
X15654905Y-12133274D01*
X15665795Y-12143463D01*
X15677429Y-12152994D01*
X15689807Y-12161869D01*
X15702930Y-12170086D01*
X15716796Y-12177645D01*
X15731407Y-12184548D01*
X15746762Y-12190792D01*
X15762861Y-12196380D01*
X15779704Y-12201310D01*
X15797291Y-12205583D01*
X15815623Y-12209198D01*
X15834699Y-12212157D01*
X15854518Y-12214457D01*
X15875083Y-12216101D01*
X15896391Y-12217087D01*
X15918443Y-12217415D01*
G37*
G36*
X15466618Y-11924666D02*
G01*
X15137355Y-11924666D01*
X15137355Y-12199000D01*
X15466618Y-12199000D01*
X15466618Y-11924666D01*
G37*
G36*
X14783007Y-12199000D02*
G01*
X14783007Y-11202318D01*
X14993203Y-11275346D01*
X15084647Y-11065151D01*
X14746175Y-10918776D01*
X14453743Y-10918776D01*
X14453743Y-12199000D01*
X14783007Y-12199000D01*
G37*
G36*
X14293080Y-11924666D02*
G01*
X13963817Y-11924666D01*
X13963817Y-12199000D01*
X14293080Y-12199000D01*
X14293080Y-11924666D01*
G37*
G36*
X13495866Y-10900700D02*
G01*
X13518610Y-10901720D01*
X13540536Y-10903419D01*
X13561643Y-10905798D01*
X13581932Y-10908856D01*
X13601402Y-10912595D01*
X13620054Y-10917012D01*
X13637887Y-10922110D01*
X13654901Y-10927887D01*
X13671097Y-10934344D01*
X13686474Y-10941481D01*
X13701033Y-10949297D01*
X13714773Y-10957793D01*
X13727694Y-10966969D01*
X13739797Y-10976825D01*
X13751081Y-10987360D01*
X13761616Y-10998644D01*
X13771472Y-11010747D01*
X13780647Y-11023668D01*
X13789143Y-11037408D01*
X13796960Y-11051967D01*
X13804096Y-11067344D01*
X13810553Y-11083540D01*
X13816331Y-11100554D01*
X13821428Y-11118387D01*
X13825846Y-11137038D01*
X13829584Y-11156509D01*
X13832643Y-11176797D01*
X13835022Y-11197905D01*
X13836721Y-11219831D01*
X13837741Y-11242575D01*
X13838080Y-11266138D01*
X13838080Y-11851637D01*
X13837741Y-11875200D01*
X13836721Y-11897945D01*
X13835022Y-11919871D01*
X13832643Y-11940978D01*
X13829584Y-11961267D01*
X13825846Y-11980737D01*
X13821428Y-11999389D01*
X13816331Y-12017222D01*
X13810553Y-12034236D01*
X13804096Y-12050432D01*
X13796960Y-12065809D01*
X13789143Y-12080368D01*
X13780647Y-12094108D01*
X13771472Y-12107029D01*
X13761616Y-12119132D01*
X13751081Y-12130416D01*
X13739797Y-12140951D01*
X13727694Y-12150807D01*
X13714773Y-12159982D01*
X13701033Y-12168478D01*
X13686474Y-12176295D01*
X13671097Y-12183431D01*
X13654901Y-12189888D01*
X13637887Y-12195666D01*
X13620054Y-12200763D01*
X13601402Y-12205181D01*
X13581932Y-12208919D01*
X13561643Y-12211978D01*
X13540536Y-12214357D01*
X13518610Y-12216056D01*
X13495866Y-12217076D01*
X13472302Y-12217415D01*
X13124623Y-12217415D01*
X13101022Y-12217076D01*
X13078246Y-12216056D01*
X13056292Y-12214357D01*
X13035163Y-12211978D01*
X13014857Y-12208919D01*
X12995374Y-12205181D01*
X12976715Y-12200763D01*
X12958879Y-12195666D01*
X12941868Y-12189888D01*
X12925679Y-12183431D01*
X12910314Y-12176295D01*
X12895773Y-12168478D01*
X12882056Y-12159982D01*
X12869161Y-12150807D01*
X12857091Y-12140951D01*
X12845844Y-12130416D01*
X12835309Y-12119132D01*
X12825453Y-12107029D01*
X12816278Y-12094108D01*
X12807782Y-12080368D01*
X12799965Y-12065809D01*
X12792829Y-12050432D01*
X12786372Y-12034236D01*
X12780594Y-12017222D01*
X12775497Y-11999389D01*
X12771079Y-11980737D01*
X12767341Y-11961267D01*
X12764282Y-11940978D01*
X12761903Y-11919871D01*
X12760204Y-11897945D01*
X12759184Y-11875200D01*
X12758845Y-11851637D01*
X13088108Y-11851637D01*
X13088216Y-11858377D01*
X13089074Y-11871214D01*
X13091971Y-11888865D01*
X13096799Y-11904590D01*
X13103558Y-11918390D01*
X13112248Y-11930264D01*
X13122869Y-11940213D01*
X13135421Y-11948236D01*
X13149905Y-11954334D01*
X13166320Y-11958506D01*
X13184665Y-11960752D01*
X13197969Y-11961180D01*
X13398956Y-11961180D01*
X13405715Y-11961073D01*
X13418590Y-11960217D01*
X13436292Y-11957329D01*
X13452063Y-11952515D01*
X13465902Y-11945776D01*
X13477811Y-11937111D01*
X13487789Y-11926520D01*
X13495835Y-11914004D01*
X13501950Y-11899562D01*
X13506135Y-11883195D01*
X13508388Y-11864902D01*
X13508817Y-11851637D01*
X13508817Y-11266138D01*
X13508709Y-11259399D01*
X13507851Y-11246562D01*
X13504954Y-11228911D01*
X13500127Y-11213185D01*
X13493368Y-11199386D01*
X13484677Y-11187511D01*
X13474056Y-11177563D01*
X13461504Y-11169539D01*
X13447020Y-11163442D01*
X13430605Y-11159270D01*
X13412260Y-11157023D01*
X13398956Y-11156595D01*
X13197969Y-11156595D01*
X13191210Y-11156702D01*
X13178336Y-11157558D01*
X13160633Y-11160447D01*
X13144862Y-11165260D01*
X13131023Y-11172000D01*
X13119114Y-11180665D01*
X13109136Y-11191256D01*
X13101090Y-11203772D01*
X13094975Y-11218213D01*
X13090791Y-11234581D01*
X13088538Y-11252873D01*
X13088108Y-11266138D01*
X13088108Y-11851637D01*
X12758845Y-11851637D01*
X12758845Y-11266138D01*
X12759184Y-11242575D01*
X12760204Y-11219831D01*
X12761903Y-11197905D01*
X12764282Y-11176797D01*
X12767341Y-11156509D01*
X12771079Y-11137038D01*
X12775497Y-11118387D01*
X12780594Y-11100554D01*
X12786372Y-11083540D01*
X12792829Y-11067344D01*
X12799965Y-11051967D01*
X12807782Y-11037408D01*
X12816278Y-11023668D01*
X12825453Y-11010747D01*
X12835309Y-10998644D01*
X12845844Y-10987360D01*
X12857091Y-10976825D01*
X12869161Y-10966969D01*
X12882056Y-10957793D01*
X12895773Y-10949297D01*
X12910314Y-10941481D01*
X12925679Y-10934344D01*
X12941868Y-10927887D01*
X12958879Y-10922110D01*
X12976715Y-10917012D01*
X12995374Y-10912595D01*
X13014857Y-10908856D01*
X13035163Y-10905798D01*
X13056292Y-10903419D01*
X13078246Y-10901720D01*
X13101022Y-10900700D01*
X13124623Y-10900360D01*
X13472302Y-10900360D01*
X13495866Y-10900700D01*
G37*
D11*
G36*
X43160676Y-9988916D02*
G01*
X43191282Y-9995979D01*
X43222918Y-10011429D01*
X43247196Y-10034236D01*
X43264117Y-10064400D01*
X43272357Y-10093828D01*
X43275889Y-10127965D01*
X43276036Y-10137235D01*
X43276036Y-11009475D01*
X43273682Y-11044612D01*
X43266619Y-11075064D01*
X43251169Y-11106540D01*
X43228362Y-11130697D01*
X43198198Y-11147533D01*
X43168769Y-11155732D01*
X43134632Y-11159245D01*
X43125362Y-11159392D01*
X42602170Y-11159392D01*
X42567033Y-11157049D01*
X42536581Y-11150022D01*
X42505105Y-11134650D01*
X42480948Y-11111957D01*
X42464112Y-11081945D01*
X42455914Y-11052664D01*
X42452400Y-11018699D01*
X42452254Y-11009475D01*
X42452254Y-10137235D01*
X42454596Y-10101921D01*
X42461623Y-10071316D01*
X42476996Y-10039680D01*
X42499688Y-10015402D01*
X42529700Y-9998480D01*
X42558981Y-9990241D01*
X42592946Y-9986709D01*
X42602170Y-9986562D01*
X43125362Y-9986562D01*
X43160676Y-9988916D01*
G37*
G36*
X49655136Y-9269350D02*
G01*
X49693444Y-9275598D01*
X49727574Y-9286013D01*
X49757524Y-9300593D01*
X49783296Y-9319340D01*
X49804888Y-9342252D01*
X49822301Y-9369329D01*
X49835535Y-9400573D01*
X49844589Y-9435982D01*
X49849465Y-9475558D01*
X49850394Y-9504256D01*
X49850394Y-10900445D01*
X49848304Y-10942798D01*
X49842036Y-10980985D01*
X49831588Y-11015005D01*
X49816961Y-11044860D01*
X49798155Y-11070550D01*
X49775169Y-11092073D01*
X49748005Y-11109431D01*
X49716662Y-11122622D01*
X49681139Y-11131648D01*
X49641437Y-11136509D01*
X49612648Y-11137434D01*
X48871395Y-11137434D01*
X48828907Y-11135351D01*
X48790599Y-11129103D01*
X48756469Y-11118688D01*
X48726519Y-11104108D01*
X48700747Y-11085362D01*
X48679155Y-11062450D01*
X48661742Y-11035372D01*
X48648508Y-11004128D01*
X48639454Y-10968719D01*
X48634578Y-10929143D01*
X48633649Y-10900445D01*
X48633649Y-9504256D01*
X48635739Y-9461903D01*
X48642007Y-9423716D01*
X48652455Y-9389696D01*
X48667082Y-9359841D01*
X48685888Y-9334151D01*
X48708874Y-9312628D01*
X48736038Y-9295270D01*
X48767381Y-9282079D01*
X48802904Y-9273053D01*
X48842606Y-9268193D01*
X48871395Y-9267267D01*
X49612648Y-9267267D01*
X49655136Y-9269350D01*
G37*
G36*
X60230882Y-12239771D02*
G01*
X37178761Y-12239771D01*
X37178761Y-11753000D01*
X37621618Y-11753000D01*
X38433286Y-11753000D01*
X38433286Y-10158436D01*
X38436909Y-10125739D01*
X38447779Y-10096740D01*
X38465894Y-10071437D01*
X38470387Y-10066820D01*
X38494950Y-10047655D01*
X38523210Y-10035588D01*
X38555167Y-10030619D01*
X38562002Y-10030477D01*
X38583960Y-10030477D01*
X38620960Y-10031189D01*
X38659557Y-10033325D01*
X38699751Y-10036885D01*
X38741542Y-10041870D01*
X38784931Y-10048278D01*
X38829916Y-10056111D01*
X38860794Y-10062123D01*
X38892381Y-10068769D01*
X38924678Y-10076048D01*
X38957686Y-10083960D01*
X38991403Y-10092504D01*
X39025829Y-10101682D01*
X39060966Y-10111492D01*
X39060966Y-11753000D01*
X39872634Y-11753000D01*
X39872634Y-10158436D01*
X39876183Y-10125739D01*
X39886830Y-10096740D01*
X39904576Y-10071437D01*
X39908977Y-10066820D01*
X39933614Y-10047655D01*
X39962096Y-10035588D01*
X39994423Y-10030619D01*
X40001350Y-10030477D01*
X40023307Y-10030477D01*
X40060307Y-10031189D01*
X40098904Y-10033325D01*
X40139098Y-10036885D01*
X40180890Y-10041870D01*
X40224278Y-10048278D01*
X40269264Y-10056111D01*
X40300141Y-10062123D01*
X40331729Y-10068769D01*
X40364026Y-10076048D01*
X40397033Y-10083960D01*
X40430750Y-10092504D01*
X40465177Y-10101682D01*
X40500314Y-10111492D01*
X40500314Y-11753000D01*
X41311981Y-11753000D01*
X41311981Y-11074591D01*
X41640586Y-11074591D01*
X41641337Y-11116145D01*
X41643591Y-11156576D01*
X41647347Y-11195883D01*
X41652605Y-11234066D01*
X41659367Y-11271125D01*
X41667630Y-11307060D01*
X41677396Y-11341871D01*
X41688665Y-11375559D01*
X41701436Y-11408122D01*
X41715709Y-11439562D01*
X41731485Y-11469878D01*
X41748764Y-11499069D01*
X41767545Y-11527137D01*
X41787828Y-11554081D01*
X41809614Y-11579901D01*
X41832903Y-11604598D01*
X41857507Y-11627886D01*
X41883241Y-11649672D01*
X41910105Y-11669955D01*
X41938099Y-11688736D01*
X41967223Y-11706015D01*
X41997477Y-11721791D01*
X42028860Y-11736064D01*
X42061373Y-11748835D01*
X42095016Y-11760104D01*
X42129789Y-11769870D01*
X42165692Y-11778133D01*
X42202724Y-11784895D01*
X42240887Y-11790153D01*
X42280179Y-11793909D01*
X42320601Y-11796163D01*
X42362152Y-11796914D01*
X43365380Y-11796914D01*
X43406934Y-11796163D01*
X43447365Y-11793909D01*
X43486672Y-11790153D01*
X43524855Y-11784895D01*
X43561914Y-11778133D01*
X43597849Y-11769870D01*
X43632661Y-11760104D01*
X43666348Y-11748835D01*
X43698912Y-11736064D01*
X43730351Y-11721791D01*
X43760667Y-11706015D01*
X43789859Y-11688736D01*
X43817927Y-11669955D01*
X43844871Y-11649672D01*
X43870691Y-11627886D01*
X43895387Y-11604598D01*
X43918675Y-11579901D01*
X43940461Y-11554081D01*
X43960744Y-11527137D01*
X43979525Y-11499069D01*
X43996804Y-11469878D01*
X44012580Y-11439562D01*
X44026853Y-11408122D01*
X44039624Y-11375559D01*
X44050893Y-11341871D01*
X44060659Y-11307060D01*
X44068923Y-11271125D01*
X44075684Y-11234066D01*
X44080942Y-11195883D01*
X44084699Y-11156576D01*
X44086952Y-11116145D01*
X44087704Y-11074591D01*
X44087704Y-10071363D01*
X44086952Y-10029811D01*
X44084699Y-9989389D01*
X44080942Y-9950097D01*
X44075684Y-9911935D01*
X44068923Y-9874903D01*
X44060659Y-9839000D01*
X44050893Y-9804227D01*
X44039624Y-9770584D01*
X44026853Y-9738071D01*
X44012580Y-9706688D01*
X43996804Y-9676434D01*
X43979525Y-9647310D01*
X43960744Y-9619316D01*
X43940461Y-9592452D01*
X43918675Y-9566718D01*
X43895387Y-9542113D01*
X43870691Y-9518825D01*
X43844871Y-9497039D01*
X43817927Y-9476756D01*
X43789859Y-9457975D01*
X43760667Y-9440696D01*
X43730351Y-9424920D01*
X43698912Y-9410647D01*
X43666348Y-9397876D01*
X43651634Y-9392954D01*
X44332264Y-9392954D01*
X44332264Y-10030477D01*
X45511908Y-10030477D01*
X45547222Y-10032819D01*
X45577828Y-10039847D01*
X45609463Y-10055219D01*
X45633742Y-10077911D01*
X45650663Y-10107924D01*
X45658903Y-10137204D01*
X45662434Y-10171170D01*
X45662581Y-10180393D01*
X45662581Y-11030676D01*
X45659032Y-11063772D01*
X45648385Y-11093023D01*
X45630639Y-11118429D01*
X45626238Y-11123048D01*
X45601276Y-11142214D01*
X45572764Y-11154281D01*
X45540704Y-11159250D01*
X45533866Y-11159392D01*
X45483299Y-11159128D01*
X45429461Y-11158339D01*
X45372352Y-11157023D01*
X45311972Y-11155180D01*
X45280556Y-11154061D01*
X45248321Y-11152811D01*
X45215269Y-11151429D01*
X45181399Y-11149915D01*
X45146711Y-11148270D01*
X45111206Y-11146493D01*
X45074882Y-11144585D01*
X45037741Y-11142545D01*
X44999782Y-11140373D01*
X44961005Y-11138070D01*
X44921411Y-11135635D01*
X44880999Y-11133069D01*
X44839769Y-11130371D01*
X44797721Y-11127541D01*
X44754855Y-11124580D01*
X44711172Y-11121487D01*
X44666670Y-11118262D01*
X44621351Y-11114906D01*
X44575215Y-11111418D01*
X44528260Y-11107799D01*
X44480488Y-11104048D01*
X44431898Y-11100165D01*
X44382490Y-11096151D01*
X44332264Y-11092005D01*
X44332264Y-11706813D01*
X44384442Y-11712357D01*
X44436204Y-11717724D01*
X44487551Y-11722915D01*
X44538482Y-11727931D01*
X44588997Y-11732770D01*
X44639097Y-11737434D01*
X44688782Y-11741921D01*
X44738051Y-11746232D01*
X44786904Y-11750368D01*
X44835342Y-11754327D01*
X44883364Y-11758111D01*
X44930971Y-11761719D01*
X44978162Y-11765150D01*
X45024938Y-11768406D01*
X45071298Y-11771485D01*
X45117242Y-11774389D01*
X45162771Y-11777117D01*
X45207885Y-11779668D01*
X45252583Y-11782044D01*
X45296865Y-11784244D01*
X45340732Y-11786268D01*
X45384183Y-11788115D01*
X45427219Y-11789787D01*
X45469839Y-11791283D01*
X45512043Y-11792603D01*
X45553832Y-11793747D01*
X45595206Y-11794715D01*
X45636164Y-11795507D01*
X45676706Y-11796122D01*
X45716833Y-11796562D01*
X45756545Y-11796826D01*
X45795840Y-11796914D01*
X45833609Y-11796187D01*
X45870444Y-11794004D01*
X45906343Y-11790366D01*
X45941308Y-11785273D01*
X45975339Y-11778725D01*
X46008435Y-11770722D01*
X46040596Y-11761263D01*
X46071823Y-11750349D01*
X46102115Y-11737981D01*
X46131472Y-11724157D01*
X46159895Y-11708878D01*
X46187383Y-11692143D01*
X46213937Y-11673954D01*
X46239556Y-11654309D01*
X46264240Y-11633210D01*
X46287990Y-11610655D01*
X46310545Y-11586905D01*
X46331644Y-11562221D01*
X46351289Y-11536602D01*
X46369478Y-11510048D01*
X46386213Y-11482560D01*
X46401492Y-11454137D01*
X46415316Y-11424780D01*
X46427684Y-11394488D01*
X46438598Y-11363261D01*
X46448057Y-11331100D01*
X46456060Y-11298004D01*
X46462608Y-11263973D01*
X46467701Y-11229008D01*
X46471339Y-11193109D01*
X46473522Y-11156274D01*
X46474249Y-11118505D01*
X46474249Y-11050362D01*
X46725624Y-11050362D01*
X46725624Y-11753000D01*
X47559249Y-11753000D01*
X47559249Y-11050362D01*
X46725624Y-11050362D01*
X46474249Y-11050362D01*
X46474249Y-10900445D01*
X47800781Y-10900445D01*
X47801618Y-10957856D01*
X47804129Y-11013297D01*
X47808314Y-11066768D01*
X47814173Y-11118269D01*
X47821706Y-11167800D01*
X47830913Y-11215362D01*
X47841795Y-11260954D01*
X47854350Y-11304576D01*
X47868579Y-11346228D01*
X47884482Y-11385911D01*
X47902059Y-11423623D01*
X47921310Y-11459366D01*
X47942236Y-11493139D01*
X47964835Y-11524943D01*
X47989108Y-11554776D01*
X48015055Y-11582640D01*
X48042830Y-11608587D01*
X48072587Y-11632861D01*
X48104325Y-11655460D01*
X48138045Y-11676385D01*
X48173747Y-11695636D01*
X48211430Y-11713213D01*
X48251095Y-11729117D01*
X48292741Y-11743346D01*
X48336369Y-11755901D01*
X48381979Y-11766782D01*
X48429570Y-11775989D01*
X48479143Y-11783522D01*
X48530697Y-11789381D01*
X48584233Y-11793566D01*
X48639751Y-11796077D01*
X48697250Y-11796914D01*
X49787550Y-11796914D01*
X49844961Y-11796077D01*
X49900401Y-11793566D01*
X49953872Y-11789381D01*
X50005373Y-11783522D01*
X50054905Y-11775989D01*
X50102467Y-11766782D01*
X50148058Y-11755901D01*
X50191680Y-11743346D01*
X50233333Y-11729117D01*
X50273015Y-11713213D01*
X50310728Y-11695636D01*
X50346471Y-11676385D01*
X50380244Y-11655460D01*
X50412047Y-11632861D01*
X50441881Y-11608587D01*
X50469745Y-11582640D01*
X50495692Y-11554776D01*
X50519965Y-11524943D01*
X50542565Y-11493139D01*
X50563490Y-11459366D01*
X50582741Y-11423623D01*
X50600318Y-11385911D01*
X50616221Y-11346228D01*
X50630450Y-11304576D01*
X50643006Y-11260954D01*
X50653887Y-11215362D01*
X50663094Y-11167800D01*
X50670627Y-11118269D01*
X50676486Y-11066768D01*
X50680671Y-11013297D01*
X50683182Y-10957856D01*
X50684019Y-10900445D01*
X50684019Y-9504256D01*
X50683182Y-9446848D01*
X50680671Y-9391416D01*
X50676486Y-9337960D01*
X50670627Y-9286480D01*
X50663094Y-9236975D01*
X50653887Y-9189446D01*
X50643006Y-9143892D01*
X50630450Y-9100315D01*
X50616221Y-9058713D01*
X50600318Y-9019086D01*
X50582741Y-8981436D01*
X50563490Y-8945761D01*
X50542565Y-8912062D01*
X50519965Y-8880338D01*
X50495692Y-8850590D01*
X50469745Y-8822818D01*
X50441881Y-8796779D01*
X50412047Y-8772420D01*
X50380244Y-8749741D01*
X50346471Y-8728742D01*
X50310728Y-8709423D01*
X50273015Y-8691783D01*
X50233333Y-8675824D01*
X50191680Y-8661545D01*
X50157603Y-8651702D01*
X50929337Y-8651702D01*
X50929337Y-9310424D01*
X51321542Y-9310424D01*
X51321542Y-11094277D01*
X50929337Y-11094277D01*
X50929337Y-11753000D01*
X52547372Y-11753000D01*
X52788904Y-11753000D01*
X53600572Y-11753000D01*
X53600572Y-10158436D01*
X53604121Y-10125739D01*
X53614768Y-10096740D01*
X53632514Y-10071437D01*
X53636915Y-10066820D01*
X53661478Y-10047655D01*
X53689738Y-10035588D01*
X53721695Y-10030619D01*
X53728531Y-10030477D01*
X53881475Y-10030477D01*
X53924458Y-10031189D01*
X53968226Y-10033325D01*
X54012779Y-10036885D01*
X54042917Y-10040050D01*
X54073404Y-10043848D01*
X54104240Y-10048278D01*
X54135426Y-10053342D01*
X54166960Y-10059038D01*
X54198843Y-10065367D01*
X54231075Y-10072329D01*
X54263656Y-10079925D01*
X54296587Y-10088153D01*
X54329866Y-10097014D01*
X54363494Y-10106508D01*
X54380439Y-10111492D01*
X54380439Y-11753000D01*
X55192107Y-11753000D01*
X55192107Y-9480027D01*
X55571441Y-9480027D01*
X55571441Y-11753000D01*
X56383108Y-11753000D01*
X56383108Y-10117549D01*
X56710198Y-10117549D01*
X56710198Y-9480027D01*
X55571441Y-9480027D01*
X55192107Y-9480027D01*
X55192107Y-9392954D01*
X54472055Y-9392954D01*
X54431926Y-9595114D01*
X54398204Y-9573710D01*
X54363764Y-9553225D01*
X54328605Y-9533658D01*
X54292728Y-9515010D01*
X54256132Y-9497279D01*
X54218817Y-9480467D01*
X54180783Y-9464574D01*
X54142031Y-9449599D01*
X54102560Y-9435542D01*
X54062370Y-9422403D01*
X54035177Y-9414154D01*
X53994600Y-9402653D01*
X53955206Y-9392283D01*
X53916997Y-9383044D01*
X53879973Y-9374936D01*
X53844133Y-9367960D01*
X53809478Y-9362115D01*
X53776007Y-9357401D01*
X53743721Y-9353819D01*
X53712619Y-9351368D01*
X53672993Y-9349859D01*
X53663415Y-9349796D01*
X53467313Y-9349796D01*
X53429455Y-9350524D01*
X53392544Y-9352707D01*
X53356579Y-9356345D01*
X53321561Y-9361438D01*
X53287489Y-9367986D01*
X53254364Y-9375989D01*
X53222185Y-9385448D01*
X53190952Y-9396361D01*
X53160666Y-9408730D01*
X53131326Y-9422554D01*
X53102933Y-9437833D01*
X53075486Y-9454567D01*
X53048986Y-9472757D01*
X53023432Y-9492401D01*
X52998825Y-9513501D01*
X52975163Y-9536056D01*
X52952609Y-9559717D01*
X52931509Y-9584325D01*
X52911864Y-9609878D01*
X52893675Y-9636379D01*
X52876941Y-9663826D01*
X52861662Y-9692219D01*
X52847838Y-9721558D01*
X52835469Y-9751845D01*
X52824555Y-9783077D01*
X52815097Y-9815256D01*
X52807093Y-9848382D01*
X52800545Y-9882453D01*
X52795452Y-9917472D01*
X52791814Y-9953437D01*
X52789631Y-9990348D01*
X52788904Y-10028205D01*
X52788904Y-11753000D01*
X52547372Y-11753000D01*
X52547372Y-11094277D01*
X52155167Y-11094277D01*
X52155167Y-9310424D01*
X52547372Y-9310424D01*
X52547372Y-8651702D01*
X50929337Y-8651702D01*
X50157603Y-8651702D01*
X50148058Y-8648945D01*
X50102467Y-8638025D01*
X50054905Y-8628786D01*
X50005373Y-8621226D01*
X49953872Y-8615346D01*
X49900401Y-8611147D01*
X49844961Y-8608627D01*
X49787550Y-8607787D01*
X55571441Y-8607787D01*
X55571441Y-9267267D01*
X56383108Y-9267267D01*
X56383108Y-8651702D01*
X56992616Y-8651702D01*
X56992616Y-10900445D01*
X56993453Y-10957856D01*
X56995964Y-11013297D01*
X57000149Y-11066768D01*
X57006009Y-11118269D01*
X57013542Y-11167800D01*
X57022749Y-11215362D01*
X57033630Y-11260954D01*
X57046185Y-11304576D01*
X57060414Y-11346228D01*
X57076317Y-11385911D01*
X57093894Y-11423623D01*
X57113146Y-11459366D01*
X57134071Y-11493139D01*
X57156670Y-11524943D01*
X57180943Y-11554776D01*
X57206891Y-11582640D01*
X57234666Y-11608587D01*
X57264422Y-11632861D01*
X57296161Y-11655460D01*
X57329881Y-11676385D01*
X57365582Y-11695636D01*
X57403265Y-11713213D01*
X57442930Y-11729117D01*
X57484576Y-11743346D01*
X57528204Y-11755901D01*
X57573814Y-11766782D01*
X57621405Y-11775989D01*
X57670978Y-11783522D01*
X57722532Y-11789381D01*
X57776068Y-11793566D01*
X57831586Y-11796077D01*
X57889085Y-11796914D01*
X58891556Y-11796914D01*
X58949055Y-11796077D01*
X59004573Y-11793566D01*
X59058109Y-11789381D01*
X59109663Y-11783522D01*
X59159236Y-11775989D01*
X59206827Y-11766782D01*
X59252437Y-11755901D01*
X59296065Y-11743346D01*
X59337711Y-11729117D01*
X59377376Y-11713213D01*
X59415059Y-11695636D01*
X59450760Y-11676385D01*
X59484480Y-11655460D01*
X59516219Y-11632861D01*
X59545975Y-11608587D01*
X59573750Y-11582640D01*
X59599698Y-11554776D01*
X59623971Y-11524943D01*
X59646570Y-11493139D01*
X59667495Y-11459366D01*
X59686747Y-11423623D01*
X59704324Y-11385911D01*
X59720227Y-11346228D01*
X59734456Y-11304576D01*
X59747011Y-11260954D01*
X59757892Y-11215362D01*
X59767099Y-11167800D01*
X59774632Y-11118269D01*
X59780492Y-11066768D01*
X59784677Y-11013297D01*
X59787188Y-10957856D01*
X59788025Y-10900445D01*
X59788025Y-8651702D01*
X58955157Y-8651702D01*
X58955157Y-10900445D01*
X58953067Y-10942798D01*
X58946798Y-10980985D01*
X58936350Y-11015005D01*
X58921723Y-11044860D01*
X58902917Y-11070550D01*
X58879932Y-11092073D01*
X58852768Y-11109431D01*
X58821424Y-11122622D01*
X58785902Y-11131648D01*
X58746200Y-11136509D01*
X58717411Y-11137434D01*
X58063230Y-11137434D01*
X58020743Y-11135351D01*
X57982434Y-11129103D01*
X57948304Y-11118688D01*
X57918354Y-11104108D01*
X57892583Y-11085362D01*
X57870991Y-11062450D01*
X57853578Y-11035372D01*
X57840344Y-11004128D01*
X57831289Y-10968719D01*
X57826413Y-10929143D01*
X57825484Y-10900445D01*
X57825484Y-8651702D01*
X56992616Y-8651702D01*
X56383108Y-8651702D01*
X56383108Y-8607787D01*
X55571441Y-8607787D01*
X49787550Y-8607787D01*
X48697250Y-8607787D01*
X48639751Y-8608627D01*
X48584233Y-8611147D01*
X48530697Y-8615346D01*
X48479143Y-8621226D01*
X48429570Y-8628786D01*
X48381979Y-8638025D01*
X48336369Y-8648945D01*
X48292741Y-8661545D01*
X48251095Y-8675824D01*
X48211430Y-8691783D01*
X48173747Y-8709423D01*
X48138045Y-8728742D01*
X48104325Y-8749741D01*
X48072587Y-8772420D01*
X48042830Y-8796779D01*
X48015055Y-8822818D01*
X47989108Y-8850590D01*
X47964835Y-8880338D01*
X47942236Y-8912062D01*
X47921310Y-8945761D01*
X47902059Y-8981436D01*
X47884482Y-9019086D01*
X47868579Y-9058713D01*
X47854350Y-9100315D01*
X47841795Y-9143892D01*
X47830913Y-9189446D01*
X47821706Y-9236975D01*
X47814173Y-9286480D01*
X47808314Y-9337960D01*
X47804129Y-9391416D01*
X47801618Y-9446848D01*
X47800781Y-9504256D01*
X47800781Y-10900445D01*
X46474249Y-10900445D01*
X46474249Y-10115278D01*
X46473498Y-10073726D01*
X46471244Y-10033304D01*
X46467488Y-9994012D01*
X46462230Y-9955850D01*
X46455468Y-9918817D01*
X46447205Y-9882915D01*
X46437439Y-9848142D01*
X46426170Y-9814499D01*
X46413399Y-9781986D01*
X46399126Y-9750602D01*
X46383350Y-9720349D01*
X46366071Y-9691225D01*
X46347290Y-9663231D01*
X46327007Y-9636367D01*
X46305221Y-9610633D01*
X46281933Y-9586028D01*
X46257236Y-9562648D01*
X46231416Y-9540776D01*
X46204472Y-9520413D01*
X46176404Y-9501558D01*
X46147213Y-9484212D01*
X46116897Y-9468374D01*
X46085457Y-9454044D01*
X46052894Y-9441223D01*
X46019206Y-9429910D01*
X45984395Y-9420105D01*
X45948460Y-9411809D01*
X45911401Y-9405021D01*
X45873218Y-9399742D01*
X45833911Y-9395971D01*
X45793480Y-9393708D01*
X45751926Y-9392954D01*
X44332264Y-9392954D01*
X43651634Y-9392954D01*
X43632661Y-9386607D01*
X43597849Y-9376841D01*
X43561914Y-9368577D01*
X43524855Y-9361816D01*
X43486672Y-9356558D01*
X43447365Y-9352801D01*
X43406934Y-9350548D01*
X43365380Y-9349796D01*
X42362152Y-9349796D01*
X42320601Y-9350548D01*
X42280179Y-9352801D01*
X42240887Y-9356558D01*
X42202724Y-9361816D01*
X42165692Y-9368577D01*
X42129789Y-9376841D01*
X42095016Y-9386607D01*
X42061373Y-9397876D01*
X42028860Y-9410647D01*
X41997477Y-9424920D01*
X41967223Y-9440696D01*
X41938099Y-9457975D01*
X41910105Y-9476756D01*
X41883241Y-9497039D01*
X41857507Y-9518825D01*
X41832903Y-9542113D01*
X41809614Y-9566718D01*
X41787828Y-9592452D01*
X41767545Y-9619316D01*
X41748764Y-9647310D01*
X41731485Y-9676434D01*
X41715709Y-9706688D01*
X41701436Y-9738071D01*
X41688665Y-9770584D01*
X41677396Y-9804227D01*
X41667630Y-9839000D01*
X41659367Y-9874903D01*
X41652605Y-9911935D01*
X41647347Y-9950097D01*
X41643591Y-9989389D01*
X41641337Y-10029811D01*
X41640586Y-10071363D01*
X41640586Y-11009475D01*
X41640586Y-11074591D01*
X41311981Y-11074591D01*
X41311981Y-9392954D01*
X40591929Y-9392954D01*
X40551800Y-9595114D01*
X40518079Y-9573710D01*
X40483638Y-9553225D01*
X40448480Y-9533658D01*
X40412602Y-9515010D01*
X40376006Y-9497279D01*
X40338691Y-9480467D01*
X40300657Y-9464574D01*
X40261905Y-9449599D01*
X40222434Y-9435542D01*
X40182244Y-9422403D01*
X40155052Y-9414154D01*
X40114474Y-9402653D01*
X40075081Y-9392283D01*
X40036872Y-9383044D01*
X39999847Y-9374936D01*
X39964008Y-9367960D01*
X39929352Y-9362115D01*
X39895882Y-9357401D01*
X39863595Y-9353819D01*
X39832494Y-9351368D01*
X39792867Y-9349859D01*
X39783290Y-9349796D01*
X39739375Y-9349796D01*
X39694454Y-9350781D01*
X39650930Y-9353736D01*
X39608802Y-9358660D01*
X39568069Y-9365555D01*
X39528733Y-9374419D01*
X39490792Y-9385252D01*
X39454248Y-9398056D01*
X39419099Y-9412829D01*
X39385347Y-9429573D01*
X39352990Y-9448285D01*
X39322030Y-9468968D01*
X39292465Y-9491621D01*
X39264297Y-9516243D01*
X39237525Y-9542835D01*
X39212148Y-9571397D01*
X39188168Y-9601928D01*
X39153075Y-9579178D01*
X39117078Y-9557493D01*
X39080176Y-9536872D01*
X39042368Y-9517316D01*
X39003656Y-9498825D01*
X38964039Y-9481399D01*
X38923516Y-9465037D01*
X38882089Y-9449741D01*
X38839756Y-9435508D01*
X38796519Y-9422341D01*
X38767191Y-9414154D01*
X38737765Y-9406361D01*
X38694370Y-9395614D01*
X38651867Y-9385998D01*
X38610255Y-9377513D01*
X38569535Y-9370160D01*
X38529707Y-9363938D01*
X38490771Y-9358847D01*
X38452726Y-9354887D01*
X38415573Y-9352059D01*
X38379312Y-9350362D01*
X38343942Y-9349796D01*
X38300027Y-9349796D01*
X38262259Y-9350524D01*
X38225424Y-9352707D01*
X38189525Y-9356345D01*
X38154559Y-9361438D01*
X38120529Y-9367986D01*
X38087433Y-9375989D01*
X38055272Y-9385448D01*
X38024045Y-9396361D01*
X37993753Y-9408730D01*
X37964396Y-9422554D01*
X37935973Y-9437833D01*
X37908485Y-9454567D01*
X37881931Y-9472757D01*
X37856312Y-9492401D01*
X37831628Y-9513501D01*
X37807878Y-9536056D01*
X37785323Y-9559717D01*
X37764223Y-9584325D01*
X37744579Y-9609878D01*
X37726390Y-9636379D01*
X37709655Y-9663826D01*
X37694376Y-9692219D01*
X37680552Y-9721558D01*
X37668183Y-9751845D01*
X37657270Y-9783077D01*
X37647811Y-9815256D01*
X37639808Y-9848382D01*
X37633260Y-9882453D01*
X37628167Y-9917472D01*
X37624529Y-9953437D01*
X37622346Y-9990348D01*
X37621618Y-10028205D01*
X37621618Y-11753000D01*
X37178761Y-11753000D01*
X37178761Y-8164930D01*
X60230882Y-8164930D01*
X60230882Y-12239771D01*
G37*
D10*
G36*
X35378346Y-8441383D02*
G01*
X34922882Y-8441383D01*
X34922882Y-9733036D01*
X34923352Y-9765662D01*
X34924764Y-9797155D01*
X34927117Y-9827514D01*
X34930410Y-9856739D01*
X34934645Y-9884832D01*
X34939821Y-9911790D01*
X34945938Y-9937615D01*
X34952997Y-9962307D01*
X34960996Y-9985866D01*
X34969936Y-10008291D01*
X34979818Y-10029582D01*
X34990641Y-10049740D01*
X35002404Y-10068765D01*
X35015109Y-10086656D01*
X35028755Y-10103414D01*
X35043342Y-10119038D01*
X35058915Y-10133625D01*
X35075628Y-10147271D01*
X35093481Y-10159976D01*
X35112475Y-10171739D01*
X35132609Y-10182562D01*
X35153883Y-10192444D01*
X35176298Y-10201384D01*
X35199853Y-10209383D01*
X35224548Y-10216442D01*
X35250384Y-10222559D01*
X35277360Y-10227735D01*
X35305476Y-10231970D01*
X35334732Y-10235264D01*
X35365129Y-10237616D01*
X35396666Y-10239028D01*
X35429344Y-10239498D01*
X36011423Y-10239498D01*
X36044102Y-10239028D01*
X36075644Y-10237616D01*
X36106050Y-10235264D01*
X36135318Y-10231970D01*
X36163450Y-10227735D01*
X36190445Y-10222559D01*
X36216303Y-10216442D01*
X36241024Y-10209383D01*
X36264608Y-10201384D01*
X36287055Y-10192444D01*
X36308365Y-10182562D01*
X36328539Y-10171739D01*
X36347575Y-10159976D01*
X36365475Y-10147271D01*
X36382238Y-10133625D01*
X36397864Y-10119038D01*
X36412398Y-10103414D01*
X36425994Y-10086656D01*
X36438652Y-10068765D01*
X36450373Y-10049740D01*
X36461156Y-10029582D01*
X36471002Y-10008291D01*
X36479910Y-9985866D01*
X36487880Y-9962307D01*
X36494912Y-9937615D01*
X36501007Y-9911790D01*
X36506164Y-9884832D01*
X36510384Y-9856739D01*
X36513666Y-9827514D01*
X36516010Y-9797155D01*
X36517416Y-9765662D01*
X36517885Y-9733036D01*
X36517885Y-8441383D01*
X36062421Y-8441383D01*
X36062421Y-9733036D01*
X36061827Y-9751403D01*
X36058707Y-9776732D01*
X36052914Y-9799394D01*
X36044447Y-9819390D01*
X36033305Y-9836720D01*
X36019490Y-9851384D01*
X36003001Y-9863382D01*
X35983838Y-9872714D01*
X35962002Y-9879379D01*
X35937491Y-9883378D01*
X35919665Y-9884563D01*
X35910307Y-9884711D01*
X35530460Y-9884711D01*
X35512040Y-9884119D01*
X35486638Y-9881008D01*
X35463910Y-9875232D01*
X35443856Y-9866789D01*
X35426476Y-9855680D01*
X35411769Y-9841905D01*
X35399737Y-9825463D01*
X35390378Y-9806356D01*
X35383693Y-9784582D01*
X35379683Y-9760142D01*
X35378494Y-9742368D01*
X35378346Y-9733036D01*
X35378346Y-8441383D01*
G37*
G36*
X33793893Y-10214000D02*
G01*
X34705261Y-10214000D01*
X34705261Y-9859652D01*
X34477529Y-9859652D01*
X34477529Y-8795730D01*
X34705261Y-8795730D01*
X34705261Y-8441383D01*
X33793893Y-8441383D01*
X33793893Y-8795730D01*
X34021625Y-8795730D01*
X34021625Y-9859652D01*
X33793893Y-9859652D01*
X33793893Y-10214000D01*
G37*
G36*
X32027871Y-10214000D02*
G01*
X32508834Y-10214000D01*
X33116852Y-9150517D01*
X33116852Y-10214000D01*
X33572316Y-10214000D01*
X33572316Y-8441383D01*
X33091353Y-8441383D01*
X32483775Y-9504865D01*
X32483775Y-8441383D01*
X32027871Y-8441383D01*
X32027871Y-10214000D01*
G37*
G36*
X30897564Y-10214000D02*
G01*
X31808932Y-10214000D01*
X31808932Y-9859652D01*
X31581200Y-9859652D01*
X31581200Y-8795730D01*
X31808932Y-8795730D01*
X31808932Y-8441383D01*
X30897564Y-8441383D01*
X30897564Y-8795730D01*
X31125296Y-8795730D01*
X31125296Y-9859652D01*
X30897564Y-9859652D01*
X30897564Y-10214000D01*
G37*
G36*
X30253149Y-8416354D02*
G01*
X30284641Y-8417766D01*
X30315000Y-8420119D01*
X30344226Y-8423412D01*
X30372318Y-8427647D01*
X30399277Y-8432823D01*
X30425102Y-8438941D01*
X30449794Y-8445999D01*
X30473352Y-8453998D01*
X30495777Y-8462939D01*
X30517068Y-8472820D01*
X30537226Y-8483643D01*
X30556251Y-8495406D01*
X30574142Y-8508111D01*
X30590900Y-8521757D01*
X30606524Y-8536344D01*
X30621111Y-8551969D01*
X30634757Y-8568726D01*
X30647462Y-8586617D01*
X30659226Y-8605642D01*
X30670048Y-8625800D01*
X30679930Y-8647092D01*
X30688870Y-8669516D01*
X30696870Y-8693075D01*
X30703928Y-8717767D01*
X30710045Y-8743592D01*
X30715221Y-8770551D01*
X30719456Y-8798643D01*
X30722750Y-8827868D01*
X30725103Y-8858227D01*
X30726514Y-8889720D01*
X30726985Y-8922346D01*
X30726985Y-9733036D01*
X30726514Y-9765662D01*
X30725103Y-9797155D01*
X30722750Y-9827514D01*
X30719456Y-9856739D01*
X30715221Y-9884832D01*
X30710045Y-9911790D01*
X30703928Y-9937615D01*
X30696870Y-9962307D01*
X30688870Y-9985866D01*
X30679930Y-10008291D01*
X30670048Y-10029582D01*
X30659226Y-10049740D01*
X30647462Y-10068765D01*
X30634757Y-10086656D01*
X30621111Y-10103414D01*
X30606524Y-10119038D01*
X30590900Y-10133625D01*
X30574142Y-10147271D01*
X30556251Y-10159976D01*
X30537226Y-10171739D01*
X30517068Y-10182562D01*
X30495777Y-10192444D01*
X30473352Y-10201384D01*
X30449794Y-10209383D01*
X30425102Y-10216442D01*
X30399277Y-10222559D01*
X30372318Y-10227735D01*
X30344226Y-10231970D01*
X30315000Y-10235264D01*
X30284641Y-10237616D01*
X30253149Y-10239028D01*
X30220523Y-10239498D01*
X29587445Y-10239498D01*
X29554768Y-10239028D01*
X29523231Y-10237616D01*
X29492834Y-10235264D01*
X29463578Y-10231970D01*
X29435461Y-10227735D01*
X29408486Y-10222559D01*
X29382650Y-10216442D01*
X29357955Y-10209383D01*
X29334400Y-10201384D01*
X29311985Y-10192444D01*
X29290711Y-10182562D01*
X29270577Y-10171739D01*
X29251583Y-10159976D01*
X29233730Y-10147271D01*
X29217017Y-10133625D01*
X29201444Y-10119038D01*
X29186857Y-10103414D01*
X29173211Y-10086656D01*
X29160506Y-10068765D01*
X29148743Y-10049740D01*
X29137920Y-10029582D01*
X29128038Y-10008291D01*
X29119098Y-9985866D01*
X29111099Y-9962307D01*
X29104040Y-9937615D01*
X29097923Y-9911790D01*
X29092747Y-9884832D01*
X29088512Y-9856739D01*
X29085218Y-9827514D01*
X29082866Y-9797155D01*
X29081454Y-9765662D01*
X29080983Y-9733036D01*
X29536448Y-9733036D01*
X29536596Y-9742368D01*
X29537784Y-9760142D01*
X29541795Y-9784582D01*
X29548480Y-9806356D01*
X29557839Y-9825463D01*
X29569871Y-9841905D01*
X29584577Y-9855680D01*
X29601958Y-9866789D01*
X29622012Y-9875232D01*
X29644740Y-9881008D01*
X29670142Y-9884119D01*
X29688562Y-9884711D01*
X30118967Y-9884711D01*
X30128325Y-9884563D01*
X30146151Y-9883378D01*
X30170662Y-9879379D01*
X30192499Y-9872714D01*
X30211661Y-9863382D01*
X30228150Y-9851384D01*
X30241965Y-9836720D01*
X30253107Y-9819390D01*
X30261574Y-9799394D01*
X30267367Y-9776732D01*
X30270487Y-9751403D01*
X30271081Y-9733036D01*
X30271081Y-8922346D01*
X30270933Y-8913014D01*
X30269744Y-8895240D01*
X30265733Y-8870800D01*
X30259049Y-8849026D01*
X30249690Y-8829919D01*
X30237658Y-8813477D01*
X30222951Y-8799702D01*
X30205571Y-8788593D01*
X30185517Y-8780150D01*
X30162789Y-8774374D01*
X30137387Y-8771263D01*
X30118967Y-8770671D01*
X29688562Y-8770671D01*
X29679203Y-8770819D01*
X29661377Y-8772004D01*
X29636867Y-8776003D01*
X29615030Y-8782669D01*
X29595867Y-8792000D01*
X29579378Y-8803998D01*
X29565563Y-8818662D01*
X29554422Y-8835992D01*
X29545955Y-8855988D01*
X29540161Y-8878650D01*
X29537042Y-8903979D01*
X29536448Y-8922346D01*
X29536448Y-9733036D01*
X29080983Y-9733036D01*
X29080983Y-8922346D01*
X29081454Y-8889720D01*
X29082866Y-8858227D01*
X29085218Y-8827868D01*
X29088512Y-8798643D01*
X29092747Y-8770551D01*
X29097923Y-8743592D01*
X29104040Y-8717767D01*
X29111099Y-8693075D01*
X29119098Y-8669516D01*
X29128038Y-8647092D01*
X29137920Y-8625800D01*
X29148743Y-8605642D01*
X29160506Y-8586617D01*
X29173211Y-8568726D01*
X29186857Y-8551969D01*
X29201444Y-8536344D01*
X29217017Y-8521757D01*
X29233730Y-8508111D01*
X29251583Y-8495406D01*
X29270577Y-8483643D01*
X29290711Y-8472820D01*
X29311985Y-8462939D01*
X29334400Y-8453998D01*
X29357955Y-8445999D01*
X29382650Y-8438941D01*
X29408486Y-8432823D01*
X29435461Y-8427647D01*
X29463578Y-8423412D01*
X29492834Y-8420119D01*
X29523231Y-8417766D01*
X29554768Y-8416354D01*
X29587445Y-8415884D01*
X30220523Y-8415884D01*
X30253149Y-8416354D01*
G37*
G36*
X28912602Y-9504865D02*
G01*
X28912602Y-9150517D01*
X27874619Y-9150517D01*
X27874619Y-9504865D01*
X28912602Y-9504865D01*
G37*
G36*
X26133656Y-9226575D02*
G01*
X26488443Y-9859652D01*
X26842791Y-9859652D01*
X27197578Y-9226575D01*
X27197578Y-10214000D01*
X27653042Y-10214000D01*
X27653042Y-8441383D01*
X27172079Y-8441383D01*
X26665617Y-9378249D01*
X26159155Y-8441383D01*
X25678192Y-8441383D01*
X25678192Y-10214000D01*
X26133656Y-10214000D01*
X26133656Y-9226575D01*
G37*
G36*
X24019002Y-10188501D02*
G01*
X24054095Y-10191638D01*
X24088813Y-10194676D01*
X24123156Y-10197614D01*
X24157123Y-10200453D01*
X24190716Y-10203192D01*
X24223933Y-10205832D01*
X24256774Y-10208372D01*
X24289241Y-10210812D01*
X24321332Y-10213153D01*
X24353049Y-10215394D01*
X24384389Y-10217535D01*
X24415355Y-10219577D01*
X24445945Y-10221520D01*
X24476161Y-10223362D01*
X24506001Y-10225105D01*
X24535465Y-10226749D01*
X24564555Y-10228293D01*
X24593269Y-10229737D01*
X24621608Y-10231082D01*
X24649572Y-10232327D01*
X24677160Y-10233472D01*
X24704374Y-10234518D01*
X24731212Y-10235464D01*
X24757674Y-10236311D01*
X24783762Y-10237058D01*
X24809474Y-10237706D01*
X24834811Y-10238253D01*
X24859773Y-10238702D01*
X24884360Y-10239050D01*
X24908571Y-10239299D01*
X24932407Y-10239449D01*
X24955868Y-10239498D01*
X24986402Y-10239043D01*
X25015906Y-10237678D01*
X25044380Y-10235403D01*
X25071823Y-10232217D01*
X25098235Y-10228121D01*
X25123617Y-10223115D01*
X25147969Y-10217199D01*
X25171290Y-10210372D01*
X25193581Y-10202636D01*
X25214842Y-10193989D01*
X25235072Y-10184432D01*
X25254272Y-10173965D01*
X25272441Y-10162588D01*
X25289580Y-10150300D01*
X25305689Y-10137103D01*
X25320767Y-10122995D01*
X25334875Y-10107916D01*
X25348073Y-10091808D01*
X25360360Y-10074669D01*
X25371738Y-10056500D01*
X25382205Y-10037300D01*
X25391762Y-10017070D01*
X25400408Y-9995809D01*
X25408145Y-9973518D01*
X25414971Y-9950197D01*
X25420888Y-9925845D01*
X25425894Y-9900463D01*
X25429989Y-9874050D01*
X25433175Y-9846607D01*
X25435451Y-9818134D01*
X25436816Y-9788630D01*
X25437271Y-9758096D01*
X25437271Y-8947845D01*
X25436800Y-8915167D01*
X25435389Y-8883630D01*
X25433036Y-8853233D01*
X25429742Y-8823977D01*
X25425507Y-8795861D01*
X25420331Y-8768885D01*
X25414214Y-8743049D01*
X25407156Y-8718354D01*
X25399156Y-8694799D01*
X25390216Y-8672384D01*
X25380335Y-8651110D01*
X25369512Y-8630976D01*
X25357748Y-8611982D01*
X25345043Y-8594129D01*
X25331397Y-8577416D01*
X25316810Y-8561843D01*
X25301186Y-8547256D01*
X25284428Y-8533610D01*
X25266537Y-8520905D01*
X25247513Y-8509142D01*
X25227355Y-8498319D01*
X25206063Y-8488438D01*
X25183638Y-8479497D01*
X25160080Y-8471498D01*
X25135388Y-8464440D01*
X25109563Y-8458322D01*
X25082604Y-8453146D01*
X25054512Y-8448911D01*
X25025286Y-8445618D01*
X24994927Y-8443265D01*
X24963435Y-8441853D01*
X24930809Y-8441383D01*
X24019002Y-8441383D01*
X24019002Y-8795730D01*
X24829253Y-8795730D01*
X24847673Y-8796324D01*
X24873075Y-8799444D01*
X24895803Y-8805237D01*
X24915857Y-8813705D01*
X24933237Y-8824846D01*
X24947944Y-8838661D01*
X24959976Y-8855150D01*
X24969335Y-8874313D01*
X24976019Y-8896149D01*
X24980030Y-8920660D01*
X24981219Y-8938486D01*
X24981367Y-8947845D01*
X24981367Y-9758096D01*
X24980530Y-9775778D01*
X24977315Y-9795438D01*
X24971689Y-9813398D01*
X24963652Y-9829657D01*
X24953204Y-9844217D01*
X24947076Y-9850859D01*
X24933552Y-9862364D01*
X24916094Y-9872777D01*
X24899690Y-9879124D01*
X24881956Y-9883091D01*
X24862894Y-9884678D01*
X24859588Y-9884711D01*
X24839284Y-9884665D01*
X24818269Y-9884526D01*
X24800213Y-9884339D01*
X24781664Y-9884088D01*
X24762621Y-9883772D01*
X24743084Y-9883392D01*
X24723182Y-9882959D01*
X24703044Y-9882482D01*
X24682670Y-9881963D01*
X24662060Y-9881400D01*
X24641214Y-9880795D01*
X24620132Y-9880147D01*
X24611632Y-9879875D01*
X24590179Y-9879051D01*
X24568682Y-9878227D01*
X24547142Y-9877402D01*
X24525560Y-9876578D01*
X24503934Y-9875754D01*
X24482266Y-9874929D01*
X24473586Y-9874600D01*
X24455582Y-9873865D01*
X24436300Y-9872978D01*
X24415740Y-9871941D01*
X24393902Y-9870753D01*
X24370787Y-9869413D01*
X24352612Y-9868309D01*
X24333718Y-9867121D01*
X24314106Y-9865847D01*
X24293775Y-9864488D01*
X24272609Y-9863063D01*
X24250493Y-9861593D01*
X24227426Y-9860075D01*
X24203409Y-9858512D01*
X24178441Y-9856902D01*
X24152522Y-9855245D01*
X24134715Y-9854115D01*
X24116486Y-9852965D01*
X24097834Y-9851793D01*
X24078760Y-9850602D01*
X24059263Y-9849389D01*
X24039343Y-9848156D01*
X24019002Y-9846903D01*
X24019002Y-10188501D01*
G37*
G36*
X22685143Y-8441383D02*
G01*
X22229678Y-8441383D01*
X22229678Y-9733036D01*
X22230149Y-9765662D01*
X22231561Y-9797155D01*
X22233913Y-9827514D01*
X22237207Y-9856739D01*
X22241442Y-9884832D01*
X22246618Y-9911790D01*
X22252735Y-9937615D01*
X22259794Y-9962307D01*
X22267793Y-9985866D01*
X22276733Y-10008291D01*
X22286615Y-10029582D01*
X22297438Y-10049740D01*
X22309201Y-10068765D01*
X22321906Y-10086656D01*
X22335552Y-10103414D01*
X22350139Y-10119038D01*
X22365712Y-10133625D01*
X22382425Y-10147271D01*
X22400278Y-10159976D01*
X22419272Y-10171739D01*
X22439406Y-10182562D01*
X22460680Y-10192444D01*
X22483095Y-10201384D01*
X22506650Y-10209383D01*
X22531345Y-10216442D01*
X22557181Y-10222559D01*
X22584157Y-10227735D01*
X22612273Y-10231970D01*
X22641529Y-10235264D01*
X22671926Y-10237616D01*
X22703463Y-10239028D01*
X22736140Y-10239498D01*
X23318220Y-10239498D01*
X23350899Y-10239028D01*
X23382441Y-10237616D01*
X23412847Y-10235264D01*
X23442115Y-10231970D01*
X23470247Y-10227735D01*
X23497242Y-10222559D01*
X23523100Y-10216442D01*
X23547821Y-10209383D01*
X23571405Y-10201384D01*
X23593852Y-10192444D01*
X23615162Y-10182562D01*
X23635336Y-10171739D01*
X23654372Y-10159976D01*
X23672272Y-10147271D01*
X23689035Y-10133625D01*
X23704661Y-10119038D01*
X23719195Y-10103414D01*
X23732791Y-10086656D01*
X23745449Y-10068765D01*
X23757170Y-10049740D01*
X23767953Y-10029582D01*
X23777799Y-10008291D01*
X23786707Y-9985866D01*
X23794677Y-9962307D01*
X23801709Y-9937615D01*
X23807804Y-9911790D01*
X23812961Y-9884832D01*
X23817181Y-9856739D01*
X23820462Y-9827514D01*
X23822807Y-9797155D01*
X23824213Y-9765662D01*
X23824682Y-9733036D01*
X23824682Y-8441383D01*
X23369218Y-8441383D01*
X23369218Y-9733036D01*
X23368624Y-9751403D01*
X23365504Y-9776732D01*
X23359711Y-9799394D01*
X23351243Y-9819390D01*
X23340102Y-9836720D01*
X23326287Y-9851384D01*
X23309798Y-9863382D01*
X23290635Y-9872714D01*
X23268799Y-9879379D01*
X23244288Y-9883378D01*
X23226462Y-9884563D01*
X23217103Y-9884711D01*
X22837257Y-9884711D01*
X22818837Y-9884119D01*
X22793435Y-9881008D01*
X22770707Y-9875232D01*
X22750653Y-9866789D01*
X22733273Y-9855680D01*
X22718566Y-9841905D01*
X22706534Y-9825463D01*
X22697175Y-9806356D01*
X22690490Y-9784582D01*
X22686479Y-9760142D01*
X22685291Y-9742368D01*
X22685143Y-9733036D01*
X22685143Y-8441383D01*
G37*
G36*
X22012058Y-9504865D02*
G01*
X22012058Y-9150517D01*
X20974075Y-9150517D01*
X20974075Y-9504865D01*
X22012058Y-9504865D01*
G37*
G36*
X20805694Y-9846903D02*
G01*
X20762772Y-9849229D01*
X20720725Y-9851481D01*
X20679554Y-9853659D01*
X20639257Y-9855764D01*
X20599835Y-9857795D01*
X20561288Y-9859752D01*
X20523616Y-9861635D01*
X20486820Y-9863444D01*
X20450898Y-9865179D01*
X20415851Y-9866841D01*
X20381679Y-9868428D01*
X20348382Y-9869942D01*
X20315960Y-9871382D01*
X20284413Y-9872748D01*
X20253741Y-9874041D01*
X20223944Y-9875259D01*
X20195022Y-9876404D01*
X20166975Y-9877474D01*
X20139803Y-9878471D01*
X20113506Y-9879394D01*
X20088084Y-9880244D01*
X20063537Y-9881019D01*
X20039864Y-9881721D01*
X20017067Y-9882348D01*
X19995145Y-9882902D01*
X19974098Y-9883382D01*
X19953926Y-9883788D01*
X19934628Y-9884121D01*
X19916206Y-9884379D01*
X19881987Y-9884674D01*
X19866189Y-9884711D01*
X19845262Y-9883521D01*
X19826004Y-9879951D01*
X19808415Y-9874000D01*
X19792495Y-9865670D01*
X19778245Y-9854959D01*
X19773866Y-9850859D01*
X19762212Y-9837150D01*
X19752969Y-9821740D01*
X19746137Y-9804630D01*
X19741717Y-9785820D01*
X19739708Y-9765310D01*
X19739574Y-9758096D01*
X19739574Y-9530364D01*
X20322093Y-9530364D01*
X20354772Y-9529895D01*
X20386314Y-9528488D01*
X20416720Y-9526144D01*
X20445988Y-9522862D01*
X20474120Y-9518643D01*
X20501115Y-9513486D01*
X20526972Y-9507391D01*
X20551693Y-9500359D01*
X20575278Y-9492388D01*
X20597725Y-9483481D01*
X20619035Y-9473635D01*
X20639209Y-9462852D01*
X20658245Y-9451131D01*
X20676145Y-9438473D01*
X20692908Y-9424877D01*
X20708534Y-9410343D01*
X20723068Y-9394717D01*
X20736664Y-9377954D01*
X20749322Y-9360054D01*
X20761043Y-9341018D01*
X20771826Y-9320844D01*
X20781672Y-9299534D01*
X20790580Y-9277086D01*
X20798550Y-9253502D01*
X20805582Y-9228781D01*
X20811677Y-9202923D01*
X20816834Y-9175929D01*
X20821054Y-9147797D01*
X20824335Y-9118529D01*
X20826680Y-9088123D01*
X20828086Y-9056581D01*
X20828555Y-9023902D01*
X20828555Y-8947845D01*
X20828086Y-8915167D01*
X20826680Y-8883630D01*
X20824335Y-8853233D01*
X20821054Y-8823977D01*
X20816834Y-8795861D01*
X20811677Y-8768885D01*
X20805582Y-8743049D01*
X20798550Y-8718354D01*
X20790580Y-8694799D01*
X20781672Y-8672384D01*
X20771826Y-8651110D01*
X20761043Y-8630976D01*
X20749322Y-8611982D01*
X20736664Y-8594129D01*
X20723068Y-8577416D01*
X20708534Y-8561843D01*
X20692908Y-8547256D01*
X20676145Y-8533610D01*
X20658245Y-8520905D01*
X20639209Y-8509142D01*
X20619035Y-8498319D01*
X20597725Y-8488438D01*
X20575278Y-8479497D01*
X20551693Y-8471498D01*
X20526972Y-8464440D01*
X20501115Y-8458322D01*
X20474120Y-8453146D01*
X20445988Y-8448911D01*
X20416720Y-8445618D01*
X20386314Y-8443265D01*
X20354772Y-8441853D01*
X20322093Y-8441383D01*
X19433147Y-8441383D01*
X19433147Y-8795730D01*
X20220976Y-8795730D01*
X20239343Y-8796324D01*
X20264672Y-8799444D01*
X20287334Y-8805237D01*
X20307330Y-8813705D01*
X20324660Y-8824846D01*
X20339324Y-8838661D01*
X20351322Y-8855150D01*
X20360654Y-8874313D01*
X20367319Y-8896149D01*
X20371318Y-8920660D01*
X20372503Y-8938486D01*
X20372651Y-8947845D01*
X20372651Y-8998403D01*
X20372059Y-9016823D01*
X20368948Y-9042225D01*
X20363172Y-9064953D01*
X20354729Y-9085007D01*
X20343620Y-9102387D01*
X20329845Y-9117094D01*
X20313403Y-9129126D01*
X20294296Y-9138485D01*
X20272522Y-9145170D01*
X20248082Y-9149180D01*
X20230308Y-9150369D01*
X20220976Y-9150517D01*
X19765073Y-9150517D01*
X19734592Y-9150972D01*
X19705138Y-9152338D01*
X19676711Y-9154613D01*
X19649311Y-9157799D01*
X19622938Y-9161895D01*
X19597592Y-9166901D01*
X19573272Y-9172817D01*
X19549980Y-9179643D01*
X19527715Y-9187380D01*
X19506477Y-9196027D01*
X19486266Y-9205584D01*
X19467081Y-9216051D01*
X19448924Y-9227428D01*
X19431793Y-9239716D01*
X19415690Y-9252913D01*
X19400614Y-9267021D01*
X19386506Y-9282098D01*
X19373308Y-9298201D01*
X19361020Y-9315331D01*
X19349643Y-9333489D01*
X19339176Y-9352673D01*
X19329619Y-9372884D01*
X19320972Y-9394123D01*
X19313236Y-9416388D01*
X19306409Y-9439680D01*
X19300493Y-9463999D01*
X19295487Y-9489345D01*
X19291391Y-9515718D01*
X19288206Y-9543118D01*
X19285930Y-9571545D01*
X19284565Y-9600999D01*
X19284110Y-9631480D01*
X19284110Y-9758096D01*
X19284565Y-9788630D01*
X19285930Y-9818134D01*
X19288206Y-9846607D01*
X19291391Y-9874050D01*
X19295487Y-9900463D01*
X19300493Y-9925845D01*
X19306409Y-9950197D01*
X19313236Y-9973518D01*
X19320972Y-9995809D01*
X19329619Y-10017070D01*
X19339176Y-10037300D01*
X19349643Y-10056500D01*
X19361020Y-10074669D01*
X19373308Y-10091808D01*
X19386506Y-10107916D01*
X19400614Y-10122995D01*
X19415690Y-10137103D01*
X19431793Y-10150300D01*
X19448924Y-10162588D01*
X19467081Y-10173965D01*
X19486266Y-10184432D01*
X19506477Y-10193989D01*
X19527715Y-10202636D01*
X19549980Y-10210372D01*
X19573272Y-10217199D01*
X19597592Y-10223115D01*
X19622938Y-10228121D01*
X19649311Y-10232217D01*
X19676711Y-10235403D01*
X19705138Y-10237678D01*
X19734592Y-10239043D01*
X19765073Y-10239498D01*
X19789439Y-10239452D01*
X19814068Y-10239313D01*
X19838960Y-10239081D01*
X19864115Y-10238757D01*
X19889532Y-10238339D01*
X19915212Y-10237829D01*
X19941155Y-10237226D01*
X19967361Y-10236531D01*
X19984977Y-10236016D01*
X20002710Y-10235459D01*
X20020560Y-10234862D01*
X20038527Y-10234223D01*
X20271535Y-10224111D01*
X20303915Y-10222478D01*
X20336429Y-10220766D01*
X20369078Y-10218975D01*
X20401860Y-10217104D01*
X20434776Y-10215155D01*
X20467826Y-10213127D01*
X20501010Y-10211020D01*
X20534328Y-10208834D01*
X20567780Y-10206569D01*
X20601366Y-10204224D01*
X20635085Y-10201801D01*
X20668939Y-10199299D01*
X20702927Y-10196718D01*
X20737049Y-10194058D01*
X20771304Y-10191319D01*
X20805694Y-10188501D01*
X20805694Y-9846903D01*
G37*
G36*
X18330097Y-10214000D02*
G01*
X18786001Y-10214000D01*
X18786001Y-8795730D01*
X19317522Y-8795730D01*
X19317522Y-8441383D01*
X17798136Y-8441383D01*
X17798136Y-8795730D01*
X18330097Y-8795730D01*
X18330097Y-10214000D01*
G37*
G36*
X16109930Y-9226575D02*
G01*
X16464717Y-9859652D01*
X16819064Y-9859652D01*
X17173852Y-9226575D01*
X17173852Y-10214000D01*
X17629316Y-10214000D01*
X17629316Y-8441383D01*
X17148353Y-8441383D01*
X16641891Y-9378249D01*
X16135429Y-8441383D01*
X15654466Y-8441383D01*
X15654466Y-10214000D01*
X16109930Y-10214000D01*
X16109930Y-9226575D01*
G37*
G36*
X14527236Y-10239498D02*
G01*
X14553758Y-10239449D01*
X14580458Y-10239299D01*
X14607335Y-10239050D01*
X14634391Y-10238702D01*
X14661624Y-10238253D01*
X14689035Y-10237706D01*
X14716623Y-10237058D01*
X14744389Y-10236311D01*
X14772333Y-10235464D01*
X14800455Y-10234518D01*
X14828755Y-10233472D01*
X14857232Y-10232327D01*
X14885887Y-10231082D01*
X14914720Y-10229737D01*
X14943730Y-10228293D01*
X14972918Y-10226749D01*
X15002284Y-10225105D01*
X15031828Y-10223362D01*
X15061549Y-10221520D01*
X15091448Y-10219577D01*
X15121525Y-10217535D01*
X15151780Y-10215394D01*
X15182213Y-10213153D01*
X15212823Y-10210812D01*
X15243611Y-10208372D01*
X15274576Y-10205832D01*
X15305720Y-10203192D01*
X15337041Y-10200453D01*
X15368540Y-10197614D01*
X15400216Y-10194676D01*
X15432071Y-10191638D01*
X15464103Y-10188501D01*
X15464103Y-9846903D01*
X15429401Y-9849229D01*
X15395253Y-9851481D01*
X15361659Y-9853659D01*
X15328619Y-9855764D01*
X15296133Y-9857795D01*
X15264200Y-9859752D01*
X15232821Y-9861635D01*
X15201997Y-9863444D01*
X15171726Y-9865179D01*
X15142008Y-9866841D01*
X15112845Y-9868428D01*
X15084236Y-9869942D01*
X15056180Y-9871382D01*
X15028678Y-9872748D01*
X15001730Y-9874041D01*
X14975336Y-9875259D01*
X14949496Y-9876404D01*
X14924209Y-9877474D01*
X14899477Y-9878471D01*
X14875298Y-9879394D01*
X14851673Y-9880244D01*
X14828602Y-9881019D01*
X14806085Y-9881721D01*
X14784122Y-9882348D01*
X14762712Y-9882902D01*
X14741856Y-9883382D01*
X14721554Y-9883788D01*
X14701806Y-9884121D01*
X14682612Y-9884379D01*
X14663972Y-9884564D01*
X14645885Y-9884674D01*
X14628353Y-9884711D01*
X14607425Y-9883521D01*
X14588167Y-9879951D01*
X14570578Y-9874000D01*
X14554658Y-9865670D01*
X14540408Y-9854959D01*
X14536029Y-9850859D01*
X14524375Y-9837150D01*
X14515132Y-9821740D01*
X14508301Y-9804630D01*
X14503880Y-9785820D01*
X14501871Y-9765310D01*
X14501737Y-9758096D01*
X14501737Y-9656979D01*
X14502331Y-9638559D01*
X14505451Y-9613157D01*
X14511244Y-9590429D01*
X14519712Y-9570375D01*
X14530853Y-9552995D01*
X14544668Y-9538288D01*
X14561157Y-9526256D01*
X14580320Y-9516897D01*
X14602156Y-9510213D01*
X14626667Y-9506202D01*
X14644493Y-9505013D01*
X14653852Y-9504865D01*
X15185373Y-9504865D01*
X15185373Y-9150517D01*
X14704410Y-9150517D01*
X14685990Y-9149923D01*
X14660588Y-9146804D01*
X14637860Y-9141010D01*
X14617806Y-9132543D01*
X14600425Y-9121402D01*
X14585719Y-9107587D01*
X14573686Y-9091098D01*
X14564328Y-9071935D01*
X14557643Y-9050098D01*
X14553632Y-9025587D01*
X14552444Y-9007761D01*
X14552295Y-8998403D01*
X14552295Y-8947845D01*
X14552890Y-8929424D01*
X14556009Y-8904023D01*
X14561803Y-8881295D01*
X14570270Y-8861240D01*
X14581411Y-8843860D01*
X14595226Y-8829154D01*
X14611715Y-8817121D01*
X14630878Y-8807763D01*
X14652715Y-8801078D01*
X14677225Y-8797067D01*
X14695051Y-8795879D01*
X14704410Y-8795730D01*
X15438604Y-8795730D01*
X15438604Y-8441383D01*
X14577794Y-8441383D01*
X14547260Y-8441824D01*
X14517756Y-8443148D01*
X14489283Y-8445355D01*
X14461840Y-8448444D01*
X14435427Y-8452416D01*
X14410045Y-8457271D01*
X14385694Y-8463009D01*
X14362372Y-8469629D01*
X14340081Y-8477132D01*
X14318821Y-8485518D01*
X14298590Y-8494787D01*
X14279391Y-8504938D01*
X14261221Y-8515972D01*
X14244082Y-8527888D01*
X14227974Y-8540687D01*
X14212896Y-8554369D01*
X14198788Y-8568898D01*
X14185590Y-8584347D01*
X14173302Y-8600717D01*
X14161925Y-8618007D01*
X14151458Y-8636217D01*
X14141901Y-8655349D01*
X14133254Y-8675400D01*
X14125518Y-8696372D01*
X14118691Y-8718265D01*
X14112775Y-8741078D01*
X14107769Y-8764811D01*
X14103673Y-8789465D01*
X14100488Y-8815040D01*
X14098212Y-8841535D01*
X14096847Y-8868950D01*
X14096392Y-8897286D01*
X14096665Y-8916024D01*
X14097484Y-8934319D01*
X14098849Y-8952171D01*
X14101921Y-8978117D01*
X14106222Y-9003067D01*
X14111751Y-9027020D01*
X14118509Y-9049976D01*
X14126496Y-9071935D01*
X14135712Y-9092897D01*
X14146156Y-9112863D01*
X14157829Y-9131831D01*
X14166294Y-9143923D01*
X14179709Y-9161230D01*
X14193904Y-9177540D01*
X14208879Y-9192853D01*
X14224635Y-9207169D01*
X14241172Y-9220488D01*
X14258489Y-9232810D01*
X14276587Y-9244136D01*
X14295465Y-9254464D01*
X14315124Y-9263796D01*
X14335563Y-9272130D01*
X14349623Y-9277133D01*
X14324527Y-9284744D01*
X14300459Y-9293619D01*
X14277417Y-9303758D01*
X14255403Y-9315161D01*
X14234415Y-9327828D01*
X14214455Y-9341759D01*
X14195521Y-9356954D01*
X14177615Y-9373413D01*
X14160735Y-9391136D01*
X14144882Y-9410123D01*
X14130057Y-9430374D01*
X14116258Y-9451889D01*
X14103486Y-9474667D01*
X14091741Y-9498710D01*
X14081023Y-9524017D01*
X14071332Y-9550587D01*
X14065356Y-9570556D01*
X14060177Y-9591336D01*
X14055794Y-9612926D01*
X14052208Y-9635327D01*
X14049419Y-9658539D01*
X14047850Y-9676479D01*
X14046730Y-9694876D01*
X14046058Y-9713728D01*
X14045833Y-9733036D01*
X14045833Y-9758096D01*
X14046289Y-9788630D01*
X14047654Y-9818134D01*
X14049929Y-9846607D01*
X14053115Y-9874050D01*
X14057211Y-9900463D01*
X14062217Y-9925845D01*
X14068133Y-9950197D01*
X14074959Y-9973518D01*
X14082696Y-9995809D01*
X14091343Y-10017070D01*
X14100900Y-10037300D01*
X14111367Y-10056500D01*
X14122744Y-10074669D01*
X14135032Y-10091808D01*
X14148229Y-10107916D01*
X14162337Y-10122995D01*
X14177415Y-10137103D01*
X14193524Y-10150300D01*
X14210663Y-10162588D01*
X14228832Y-10173965D01*
X14248032Y-10184432D01*
X14268262Y-10193989D01*
X14289523Y-10202636D01*
X14311814Y-10210372D01*
X14335135Y-10217199D01*
X14359487Y-10223115D01*
X14384869Y-10228121D01*
X14411282Y-10232217D01*
X14438725Y-10235403D01*
X14467198Y-10237678D01*
X14496702Y-10239043D01*
X14527236Y-10239498D01*
G37*
G36*
X12559420Y-8998403D02*
G01*
X12560133Y-9025102D01*
X12562271Y-9051345D01*
X12565835Y-9077131D01*
X12570823Y-9102459D01*
X12577238Y-9127332D01*
X12585077Y-9151747D01*
X12594342Y-9175705D01*
X12605033Y-9199207D01*
X12617148Y-9222252D01*
X12630690Y-9244840D01*
X12645656Y-9266971D01*
X12662048Y-9288646D01*
X12679865Y-9309863D01*
X12699108Y-9330624D01*
X12719776Y-9350928D01*
X12741870Y-9370775D01*
X12755986Y-9382762D01*
X12770419Y-9394763D01*
X12785167Y-9406778D01*
X12800232Y-9418806D01*
X12815612Y-9430848D01*
X12831308Y-9442903D01*
X12847321Y-9454973D01*
X12863649Y-9467056D01*
X13407920Y-9859652D01*
X12559420Y-9859652D01*
X12559420Y-10214000D01*
X13927131Y-10214000D01*
X13927131Y-9733036D01*
X13015324Y-9074460D01*
X13015324Y-8947845D01*
X13015918Y-8929424D01*
X13019038Y-8904023D01*
X13024831Y-8881295D01*
X13033298Y-8861240D01*
X13044440Y-8843860D01*
X13058255Y-8829154D01*
X13074744Y-8817121D01*
X13093907Y-8807763D01*
X13115743Y-8801078D01*
X13140254Y-8797067D01*
X13158080Y-8795879D01*
X13167438Y-8795730D01*
X13876573Y-8795730D01*
X13876573Y-8441383D01*
X13065882Y-8441383D01*
X13033256Y-8441853D01*
X13001764Y-8443265D01*
X12971405Y-8445618D01*
X12942179Y-8448911D01*
X12914087Y-8453146D01*
X12887129Y-8458322D01*
X12861303Y-8464440D01*
X12836612Y-8471498D01*
X12813053Y-8479497D01*
X12790628Y-8488438D01*
X12769337Y-8498319D01*
X12749179Y-8509142D01*
X12730154Y-8520905D01*
X12712263Y-8533610D01*
X12695505Y-8547256D01*
X12679881Y-8561843D01*
X12665294Y-8577416D01*
X12651648Y-8594129D01*
X12638943Y-8611982D01*
X12627179Y-8630976D01*
X12616357Y-8651110D01*
X12606475Y-8672384D01*
X12597535Y-8694799D01*
X12589535Y-8718354D01*
X12582477Y-8743049D01*
X12576360Y-8768885D01*
X12571184Y-8795861D01*
X12566949Y-8823977D01*
X12563655Y-8853233D01*
X12561302Y-8883630D01*
X12559891Y-8915167D01*
X12559420Y-8947845D01*
X12559420Y-8998403D01*
G37*
G36*
X11884138Y-10214000D02*
G01*
X12339602Y-10214000D01*
X12339602Y-8441383D01*
X10934521Y-8441383D01*
X10934521Y-8795730D01*
X11884138Y-8795730D01*
X11884138Y-9213825D01*
X11136755Y-9213825D01*
X11136755Y-9568173D01*
X11884138Y-9568173D01*
X11884138Y-10214000D01*
G37*
G36*
X10500160Y-10214000D02*
G01*
X10500160Y-8833979D01*
X10791200Y-8935095D01*
X10917815Y-8644055D01*
X10449162Y-8441383D01*
X10044256Y-8441383D01*
X10044256Y-10214000D01*
X10500160Y-10214000D01*
G37*
G36*
X9322905Y-8416354D02*
G01*
X9354397Y-8417766D01*
X9384756Y-8420119D01*
X9413982Y-8423412D01*
X9442074Y-8427647D01*
X9469032Y-8432823D01*
X9494858Y-8438941D01*
X9519549Y-8445999D01*
X9543108Y-8453998D01*
X9565533Y-8462939D01*
X9586824Y-8472820D01*
X9606982Y-8483643D01*
X9626007Y-8495406D01*
X9643898Y-8508111D01*
X9660656Y-8521757D01*
X9676280Y-8536344D01*
X9690867Y-8551969D01*
X9704513Y-8568726D01*
X9717218Y-8586617D01*
X9728982Y-8605642D01*
X9739804Y-8625800D01*
X9749686Y-8647092D01*
X9758626Y-8669516D01*
X9766625Y-8693075D01*
X9773684Y-8717767D01*
X9779801Y-8743592D01*
X9784977Y-8770551D01*
X9789212Y-8798643D01*
X9792506Y-8827868D01*
X9794858Y-8858227D01*
X9796270Y-8889720D01*
X9796741Y-8922346D01*
X9796741Y-9733036D01*
X9796270Y-9765662D01*
X9794858Y-9797155D01*
X9792506Y-9827514D01*
X9789212Y-9856739D01*
X9784977Y-9884832D01*
X9779801Y-9911790D01*
X9773684Y-9937615D01*
X9766625Y-9962307D01*
X9758626Y-9985866D01*
X9749686Y-10008291D01*
X9739804Y-10029582D01*
X9728982Y-10049740D01*
X9717218Y-10068765D01*
X9704513Y-10086656D01*
X9690867Y-10103414D01*
X9676280Y-10119038D01*
X9660656Y-10133625D01*
X9643898Y-10147271D01*
X9626007Y-10159976D01*
X9606982Y-10171739D01*
X9586824Y-10182562D01*
X9565533Y-10192444D01*
X9543108Y-10201384D01*
X9519549Y-10209383D01*
X9494858Y-10216442D01*
X9469032Y-10222559D01*
X9442074Y-10227735D01*
X9413982Y-10231970D01*
X9384756Y-10235264D01*
X9354397Y-10237616D01*
X9322905Y-10239028D01*
X9290279Y-10239498D01*
X8808876Y-10239498D01*
X8776199Y-10239028D01*
X8744661Y-10237616D01*
X8714265Y-10235264D01*
X8685008Y-10231970D01*
X8656892Y-10227735D01*
X8629916Y-10222559D01*
X8604081Y-10216442D01*
X8579385Y-10209383D01*
X8555830Y-10201384D01*
X8533416Y-10192444D01*
X8512142Y-10182562D01*
X8492008Y-10171739D01*
X8473014Y-10159976D01*
X8455160Y-10147271D01*
X8438447Y-10133625D01*
X8422875Y-10119038D01*
X8408288Y-10103414D01*
X8394642Y-10086656D01*
X8381937Y-10068765D01*
X8370173Y-10049740D01*
X8359350Y-10029582D01*
X8349469Y-10008291D01*
X8340528Y-9985866D01*
X8332529Y-9962307D01*
X8325471Y-9937615D01*
X8319354Y-9911790D01*
X8314178Y-9884832D01*
X8309943Y-9856739D01*
X8306649Y-9827514D01*
X8304296Y-9797155D01*
X8302885Y-9765662D01*
X8302414Y-9733036D01*
X8758318Y-9733036D01*
X8758466Y-9742368D01*
X8759655Y-9760142D01*
X8763665Y-9784582D01*
X8770350Y-9806356D01*
X8779709Y-9825463D01*
X8791741Y-9841905D01*
X8806448Y-9855680D01*
X8823828Y-9866789D01*
X8843882Y-9875232D01*
X8866610Y-9881008D01*
X8892012Y-9884119D01*
X8910432Y-9884711D01*
X9188722Y-9884711D01*
X9198081Y-9884563D01*
X9215907Y-9883378D01*
X9240418Y-9879379D01*
X9262254Y-9872714D01*
X9281417Y-9863382D01*
X9297906Y-9851384D01*
X9311721Y-9836720D01*
X9322862Y-9819390D01*
X9331330Y-9799394D01*
X9337123Y-9776732D01*
X9340243Y-9751403D01*
X9340837Y-9733036D01*
X9340837Y-8922346D01*
X9340688Y-8913014D01*
X9339500Y-8895240D01*
X9335489Y-8870800D01*
X9328804Y-8849026D01*
X9319446Y-8829919D01*
X9307413Y-8813477D01*
X9292707Y-8799702D01*
X9275327Y-8788593D01*
X9255273Y-8780150D01*
X9232544Y-8774374D01*
X9207143Y-8771263D01*
X9188722Y-8770671D01*
X8910432Y-8770671D01*
X8901074Y-8770819D01*
X8883248Y-8772004D01*
X8858737Y-8776003D01*
X8836900Y-8782669D01*
X8817737Y-8792000D01*
X8801248Y-8803998D01*
X8787433Y-8818662D01*
X8776292Y-8835992D01*
X8767825Y-8855988D01*
X8762031Y-8878650D01*
X8758912Y-8903979D01*
X8758318Y-8922346D01*
X8758318Y-9733036D01*
X8302414Y-9733036D01*
X8302414Y-8922346D01*
X8302885Y-8889720D01*
X8304296Y-8858227D01*
X8306649Y-8827868D01*
X8309943Y-8798643D01*
X8314178Y-8770551D01*
X8319354Y-8743592D01*
X8325471Y-8717767D01*
X8332529Y-8693075D01*
X8340528Y-8669516D01*
X8349469Y-8647092D01*
X8359350Y-8625800D01*
X8370173Y-8605642D01*
X8381937Y-8586617D01*
X8394642Y-8568726D01*
X8408288Y-8551969D01*
X8422875Y-8536344D01*
X8438447Y-8521757D01*
X8455160Y-8508111D01*
X8473014Y-8495406D01*
X8492008Y-8483643D01*
X8512142Y-8472820D01*
X8533416Y-8462939D01*
X8555830Y-8453998D01*
X8579385Y-8445999D01*
X8604081Y-8438941D01*
X8629916Y-8432823D01*
X8656892Y-8427647D01*
X8685008Y-8423412D01*
X8714265Y-8420119D01*
X8744661Y-8417766D01*
X8776199Y-8416354D01*
X8808876Y-8415884D01*
X9290279Y-8415884D01*
X9322905Y-8416354D01*
G37*
G36*
X7222226Y-10239498D02*
G01*
X7248748Y-10239449D01*
X7275447Y-10239299D01*
X7302325Y-10239050D01*
X7329380Y-10238702D01*
X7356613Y-10238253D01*
X7384024Y-10237706D01*
X7411613Y-10237058D01*
X7439379Y-10236311D01*
X7467323Y-10235464D01*
X7495445Y-10234518D01*
X7523744Y-10233472D01*
X7552221Y-10232327D01*
X7580876Y-10231082D01*
X7609709Y-10229737D01*
X7638720Y-10228293D01*
X7667908Y-10226749D01*
X7697274Y-10225105D01*
X7726817Y-10223362D01*
X7756539Y-10221520D01*
X7786438Y-10219577D01*
X7816515Y-10217535D01*
X7846770Y-10215394D01*
X7877202Y-10213153D01*
X7907812Y-10210812D01*
X7938600Y-10208372D01*
X7969566Y-10205832D01*
X8000709Y-10203192D01*
X8032030Y-10200453D01*
X8063529Y-10197614D01*
X8095206Y-10194676D01*
X8127060Y-10191638D01*
X8159092Y-10188501D01*
X8159092Y-9846903D01*
X8124391Y-9849229D01*
X8090243Y-9851481D01*
X8056649Y-9853659D01*
X8023609Y-9855764D01*
X7991122Y-9857795D01*
X7959190Y-9859752D01*
X7927811Y-9861635D01*
X7896986Y-9863444D01*
X7866715Y-9865179D01*
X7836998Y-9866841D01*
X7807835Y-9868428D01*
X7779225Y-9869942D01*
X7751170Y-9871382D01*
X7723668Y-9872748D01*
X7696720Y-9874041D01*
X7670326Y-9875259D01*
X7644485Y-9876404D01*
X7619199Y-9877474D01*
X7594466Y-9878471D01*
X7570288Y-9879394D01*
X7546663Y-9880244D01*
X7523592Y-9881019D01*
X7501074Y-9881721D01*
X7479111Y-9882348D01*
X7457702Y-9882902D01*
X7436846Y-9883382D01*
X7416544Y-9883788D01*
X7396796Y-9884121D01*
X7377602Y-9884379D01*
X7358961Y-9884564D01*
X7340875Y-9884674D01*
X7323342Y-9884711D01*
X7302415Y-9883521D01*
X7283157Y-9879951D01*
X7265568Y-9874000D01*
X7249648Y-9865670D01*
X7235398Y-9854959D01*
X7231018Y-9850859D01*
X7219365Y-9837150D01*
X7210122Y-9821740D01*
X7203290Y-9804630D01*
X7198870Y-9785820D01*
X7196861Y-9765310D01*
X7196727Y-9758096D01*
X7196727Y-9656979D01*
X7197321Y-9638559D01*
X7200440Y-9613157D01*
X7206234Y-9590429D01*
X7214701Y-9570375D01*
X7225842Y-9552995D01*
X7239657Y-9538288D01*
X7256146Y-9526256D01*
X7275309Y-9516897D01*
X7297146Y-9510213D01*
X7321657Y-9506202D01*
X7339482Y-9505013D01*
X7348841Y-9504865D01*
X7880362Y-9504865D01*
X7880362Y-9150517D01*
X7399399Y-9150517D01*
X7380979Y-9149923D01*
X7355577Y-9146804D01*
X7332849Y-9141010D01*
X7312795Y-9132543D01*
X7295415Y-9121402D01*
X7280708Y-9107587D01*
X7268676Y-9091098D01*
X7259317Y-9071935D01*
X7252633Y-9050098D01*
X7248622Y-9025587D01*
X7247433Y-9007761D01*
X7247285Y-8998403D01*
X7247285Y-8947845D01*
X7247879Y-8929424D01*
X7250999Y-8904023D01*
X7256792Y-8881295D01*
X7265259Y-8861240D01*
X7276401Y-8843860D01*
X7290216Y-8829154D01*
X7306705Y-8817121D01*
X7325867Y-8807763D01*
X7347704Y-8801078D01*
X7372215Y-8797067D01*
X7390041Y-8795879D01*
X7399399Y-8795730D01*
X8133593Y-8795730D01*
X8133593Y-8441383D01*
X7272784Y-8441383D01*
X7242250Y-8441824D01*
X7212746Y-8443148D01*
X7184273Y-8445355D01*
X7156830Y-8448444D01*
X7130417Y-8452416D01*
X7105035Y-8457271D01*
X7080683Y-8463009D01*
X7057362Y-8469629D01*
X7035071Y-8477132D01*
X7013810Y-8485518D01*
X6993580Y-8494787D01*
X6974380Y-8504938D01*
X6956211Y-8515972D01*
X6939072Y-8527888D01*
X6922963Y-8540687D01*
X6907885Y-8554369D01*
X6893777Y-8568898D01*
X6880579Y-8584347D01*
X6868292Y-8600717D01*
X6856915Y-8618007D01*
X6846447Y-8636217D01*
X6836891Y-8655349D01*
X6828244Y-8675400D01*
X6820507Y-8696372D01*
X6813681Y-8718265D01*
X6807765Y-8741078D01*
X6802759Y-8764811D01*
X6798663Y-8789465D01*
X6795477Y-8815040D01*
X6793202Y-8841535D01*
X6791836Y-8868950D01*
X6791381Y-8897286D01*
X6791654Y-8916024D01*
X6792473Y-8934319D01*
X6793839Y-8952171D01*
X6796911Y-8978117D01*
X6801211Y-9003067D01*
X6806741Y-9027020D01*
X6813499Y-9049976D01*
X6821486Y-9071935D01*
X6830701Y-9092897D01*
X6841146Y-9112863D01*
X6852819Y-9131831D01*
X6861284Y-9143923D01*
X6874698Y-9161230D01*
X6888893Y-9177540D01*
X6903869Y-9192853D01*
X6919625Y-9207169D01*
X6936161Y-9220488D01*
X6953479Y-9232810D01*
X6971576Y-9244136D01*
X6990454Y-9254464D01*
X7010113Y-9263796D01*
X7030552Y-9272130D01*
X7044612Y-9277133D01*
X7019517Y-9284744D01*
X6995448Y-9293619D01*
X6972407Y-9303758D01*
X6950392Y-9315161D01*
X6929405Y-9327828D01*
X6909444Y-9341759D01*
X6890511Y-9356954D01*
X6872604Y-9373413D01*
X6855725Y-9391136D01*
X6839872Y-9410123D01*
X6825046Y-9430374D01*
X6811247Y-9451889D01*
X6798476Y-9474667D01*
X6786731Y-9498710D01*
X6776013Y-9524017D01*
X6766322Y-9550587D01*
X6760346Y-9570556D01*
X6755166Y-9591336D01*
X6750783Y-9612926D01*
X6747198Y-9635327D01*
X6744409Y-9658539D01*
X6742840Y-9676479D01*
X6741719Y-9694876D01*
X6741047Y-9713728D01*
X6740823Y-9733036D01*
X6740823Y-9758096D01*
X6741278Y-9788630D01*
X6742643Y-9818134D01*
X6744919Y-9846607D01*
X6748104Y-9874050D01*
X6752200Y-9900463D01*
X6757206Y-9925845D01*
X6763123Y-9950197D01*
X6769949Y-9973518D01*
X6777685Y-9995809D01*
X6786332Y-10017070D01*
X6795889Y-10037300D01*
X6806356Y-10056500D01*
X6817734Y-10074669D01*
X6830021Y-10091808D01*
X6843219Y-10107916D01*
X6857327Y-10122995D01*
X6872405Y-10137103D01*
X6888514Y-10150300D01*
X6905653Y-10162588D01*
X6923822Y-10173965D01*
X6943022Y-10184432D01*
X6963252Y-10193989D01*
X6984512Y-10202636D01*
X7006803Y-10210372D01*
X7030125Y-10217199D01*
X7054477Y-10223115D01*
X7079859Y-10228121D01*
X7106271Y-10232217D01*
X7133714Y-10235403D01*
X7162188Y-10237678D01*
X7191691Y-10239043D01*
X7222226Y-10239498D01*
G37*
G36*
X5153293Y-10188501D02*
G01*
X5188387Y-10191638D01*
X5223105Y-10194676D01*
X5257447Y-10197614D01*
X5291415Y-10200453D01*
X5325007Y-10203192D01*
X5358224Y-10205832D01*
X5391066Y-10208372D01*
X5423533Y-10210812D01*
X5455624Y-10213153D01*
X5487340Y-10215394D01*
X5518681Y-10217535D01*
X5549647Y-10219577D01*
X5580237Y-10221520D01*
X5610452Y-10223362D01*
X5640292Y-10225105D01*
X5669757Y-10226749D01*
X5698846Y-10228293D01*
X5727561Y-10229737D01*
X5755900Y-10231082D01*
X5783863Y-10232327D01*
X5811452Y-10233472D01*
X5838665Y-10234518D01*
X5865503Y-10235464D01*
X5891966Y-10236311D01*
X5918054Y-10237058D01*
X5943766Y-10237706D01*
X5969103Y-10238253D01*
X5994065Y-10238702D01*
X6018652Y-10239050D01*
X6042863Y-10239299D01*
X6066699Y-10239449D01*
X6090160Y-10239498D01*
X6120694Y-10239043D01*
X6150198Y-10237678D01*
X6178671Y-10235403D01*
X6206114Y-10232217D01*
X6232527Y-10228121D01*
X6257909Y-10223115D01*
X6282261Y-10217199D01*
X6305582Y-10210372D01*
X6327873Y-10202636D01*
X6349134Y-10193989D01*
X6369364Y-10184432D01*
X6388564Y-10173965D01*
X6406733Y-10162588D01*
X6423872Y-10150300D01*
X6439981Y-10137103D01*
X6455059Y-10122995D01*
X6469167Y-10107916D01*
X6482364Y-10091808D01*
X6494652Y-10074669D01*
X6506029Y-10056500D01*
X6516496Y-10037300D01*
X6526053Y-10017070D01*
X6534700Y-9995809D01*
X6542437Y-9973518D01*
X6549263Y-9950197D01*
X6555179Y-9925845D01*
X6560185Y-9900463D01*
X6564281Y-9874050D01*
X6567467Y-9846607D01*
X6569742Y-9818134D01*
X6571108Y-9788630D01*
X6571563Y-9758096D01*
X6571563Y-8947845D01*
X6571092Y-8915167D01*
X6569680Y-8883630D01*
X6567328Y-8853233D01*
X6564034Y-8823977D01*
X6559799Y-8795861D01*
X6554623Y-8768885D01*
X6548506Y-8743049D01*
X6541448Y-8718354D01*
X6533448Y-8694799D01*
X6524508Y-8672384D01*
X6514626Y-8651110D01*
X6503804Y-8630976D01*
X6492040Y-8611982D01*
X6479335Y-8594129D01*
X6465689Y-8577416D01*
X6451102Y-8561843D01*
X6435478Y-8547256D01*
X6418720Y-8533610D01*
X6400829Y-8520905D01*
X6381804Y-8509142D01*
X6361646Y-8498319D01*
X6340355Y-8488438D01*
X6317930Y-8479497D01*
X6294371Y-8471498D01*
X6269680Y-8464440D01*
X6243854Y-8458322D01*
X6216896Y-8453146D01*
X6188804Y-8448911D01*
X6159578Y-8445618D01*
X6129219Y-8443265D01*
X6097727Y-8441853D01*
X6065101Y-8441383D01*
X5153293Y-8441383D01*
X5153293Y-8795730D01*
X5963545Y-8795730D01*
X5981965Y-8796324D01*
X6007367Y-8799444D01*
X6030095Y-8805237D01*
X6050149Y-8813705D01*
X6067529Y-8824846D01*
X6082235Y-8838661D01*
X6094268Y-8855150D01*
X6103626Y-8874313D01*
X6110311Y-8896149D01*
X6114322Y-8920660D01*
X6115510Y-8938486D01*
X6115659Y-8947845D01*
X6115659Y-9758096D01*
X6114822Y-9775778D01*
X6111607Y-9795438D01*
X6105981Y-9813398D01*
X6097944Y-9829657D01*
X6087496Y-9844217D01*
X6081367Y-9850859D01*
X6067843Y-9862364D01*
X6050385Y-9872777D01*
X6033981Y-9879124D01*
X6016248Y-9883091D01*
X5997186Y-9884678D01*
X5993879Y-9884711D01*
X5973575Y-9884665D01*
X5952560Y-9884526D01*
X5934505Y-9884339D01*
X5915956Y-9884088D01*
X5896912Y-9883772D01*
X5877376Y-9883392D01*
X5857474Y-9882959D01*
X5837336Y-9882482D01*
X5816962Y-9881963D01*
X5796352Y-9881400D01*
X5775506Y-9880795D01*
X5754423Y-9880147D01*
X5745924Y-9879875D01*
X5724470Y-9879051D01*
X5702974Y-9878227D01*
X5681434Y-9877402D01*
X5659851Y-9876578D01*
X5638226Y-9875754D01*
X5616557Y-9874929D01*
X5607878Y-9874600D01*
X5589874Y-9873865D01*
X5570591Y-9872978D01*
X5550031Y-9871941D01*
X5528194Y-9870753D01*
X5505079Y-9869413D01*
X5486904Y-9868309D01*
X5468010Y-9867121D01*
X5448398Y-9865847D01*
X5428066Y-9864488D01*
X5406901Y-9863063D01*
X5384785Y-9861593D01*
X5361718Y-9860075D01*
X5337700Y-9858512D01*
X5312733Y-9856902D01*
X5286814Y-9855245D01*
X5269007Y-9854115D01*
X5250778Y-9852965D01*
X5232126Y-9851793D01*
X5213051Y-9850602D01*
X5193554Y-9849389D01*
X5173635Y-9848156D01*
X5153293Y-9846903D01*
X5153293Y-10188501D01*
G37*
G36*
X4533991Y-8416325D02*
G01*
X4563445Y-8417649D01*
X4591872Y-8419856D01*
X4619272Y-8422945D01*
X4645645Y-8426918D01*
X4670991Y-8431772D01*
X4695310Y-8437510D01*
X4718602Y-8444130D01*
X4740867Y-8451633D01*
X4762106Y-8460019D01*
X4782317Y-8469288D01*
X4801501Y-8479439D01*
X4819659Y-8490473D01*
X4836789Y-8502389D01*
X4852892Y-8515188D01*
X4867969Y-8528870D01*
X4882077Y-8543399D01*
X4895274Y-8558848D01*
X4907562Y-8575218D01*
X4918939Y-8592508D01*
X4929406Y-8610718D01*
X4938963Y-8629850D01*
X4947610Y-8649901D01*
X4955347Y-8670873D01*
X4962173Y-8692766D01*
X4968089Y-8715579D01*
X4973095Y-8739312D01*
X4977191Y-8763966D01*
X4980377Y-8789541D01*
X4982652Y-8816036D01*
X4984018Y-8843451D01*
X4984473Y-8871787D01*
X4984473Y-8897286D01*
X4984405Y-8906711D01*
X4983862Y-8925227D01*
X4982777Y-8943300D01*
X4980131Y-8969579D01*
X4976265Y-8994861D01*
X4971177Y-9019147D01*
X4964868Y-9042435D01*
X4957339Y-9064726D01*
X4948588Y-9086021D01*
X4938616Y-9106318D01*
X4927424Y-9125619D01*
X4915010Y-9143923D01*
X4906100Y-9155571D01*
X4892092Y-9172214D01*
X4877311Y-9187859D01*
X4861757Y-9202507D01*
X4845431Y-9216159D01*
X4828331Y-9228813D01*
X4810459Y-9240471D01*
X4791814Y-9251132D01*
X4772396Y-9260796D01*
X4752205Y-9269463D01*
X4731242Y-9277133D01*
X4747508Y-9281788D01*
X4771084Y-9289744D01*
X4793670Y-9298867D01*
X4815267Y-9309157D01*
X4835875Y-9320614D01*
X4855494Y-9333238D01*
X4874124Y-9347028D01*
X4891764Y-9361986D01*
X4908415Y-9378110D01*
X4924077Y-9395402D01*
X4938750Y-9413860D01*
X4950409Y-9429944D01*
X4961316Y-9446544D01*
X4971471Y-9463659D01*
X4980873Y-9481289D01*
X4989523Y-9499435D01*
X4997421Y-9518095D01*
X5004567Y-9537271D01*
X5010961Y-9556962D01*
X5016602Y-9577168D01*
X5021491Y-9597889D01*
X5025629Y-9619126D01*
X5029013Y-9640878D01*
X5031646Y-9663144D01*
X5033527Y-9685927D01*
X5034655Y-9709224D01*
X5035031Y-9733036D01*
X5035031Y-9758096D01*
X5034576Y-9788630D01*
X5033211Y-9818134D01*
X5030935Y-9846607D01*
X5027749Y-9874050D01*
X5023654Y-9900463D01*
X5018648Y-9925845D01*
X5012731Y-9950197D01*
X5005905Y-9973518D01*
X4998168Y-9995809D01*
X4989522Y-10017070D01*
X4979965Y-10037300D01*
X4969497Y-10056500D01*
X4958120Y-10074669D01*
X4945833Y-10091808D01*
X4932635Y-10107916D01*
X4918527Y-10122995D01*
X4903451Y-10137103D01*
X4887347Y-10150300D01*
X4870217Y-10162588D01*
X4852059Y-10173965D01*
X4832875Y-10184432D01*
X4812664Y-10193989D01*
X4791426Y-10202636D01*
X4769160Y-10210372D01*
X4745868Y-10217199D01*
X4721549Y-10223115D01*
X4696203Y-10228121D01*
X4669830Y-10232217D01*
X4642430Y-10235403D01*
X4614003Y-10237678D01*
X4584549Y-10239043D01*
X4554068Y-10239498D01*
X3971549Y-10239498D01*
X3941068Y-10239043D01*
X3911614Y-10237678D01*
X3883187Y-10235403D01*
X3855787Y-10232217D01*
X3829414Y-10228121D01*
X3804068Y-10223115D01*
X3779748Y-10217199D01*
X3756456Y-10210372D01*
X3734191Y-10202636D01*
X3712953Y-10193989D01*
X3692741Y-10184432D01*
X3673557Y-10173965D01*
X3655400Y-10162588D01*
X3638269Y-10150300D01*
X3622166Y-10137103D01*
X3607090Y-10122995D01*
X3592982Y-10107916D01*
X3579784Y-10091808D01*
X3567496Y-10074669D01*
X3556119Y-10056500D01*
X3545652Y-10037300D01*
X3536095Y-10017070D01*
X3527448Y-9995809D01*
X3519712Y-9973518D01*
X3512885Y-9950197D01*
X3506969Y-9925845D01*
X3501963Y-9900463D01*
X3497867Y-9874050D01*
X3494682Y-9846607D01*
X3492406Y-9818134D01*
X3491041Y-9788630D01*
X3490586Y-9758096D01*
X3946050Y-9758096D01*
X3946184Y-9765310D01*
X3948193Y-9785820D01*
X3952613Y-9804630D01*
X3959445Y-9821740D01*
X3968688Y-9837150D01*
X3980341Y-9850859D01*
X3984721Y-9854959D01*
X3998971Y-9865670D01*
X4014891Y-9874000D01*
X4032480Y-9879951D01*
X4051738Y-9883521D01*
X4072665Y-9884711D01*
X4452512Y-9884711D01*
X4459726Y-9884579D01*
X4480236Y-9882596D01*
X4499046Y-9878232D01*
X4516156Y-9871488D01*
X4531566Y-9862364D01*
X4545275Y-9850859D01*
X4551325Y-9844217D01*
X4561639Y-9829657D01*
X4569573Y-9813398D01*
X4575127Y-9795438D01*
X4578301Y-9775778D01*
X4579127Y-9758096D01*
X4579127Y-9656979D01*
X4578979Y-9647621D01*
X4577794Y-9629795D01*
X4573795Y-9605284D01*
X4567129Y-9583447D01*
X4557798Y-9564285D01*
X4545800Y-9547796D01*
X4531136Y-9533980D01*
X4513806Y-9522839D01*
X4493810Y-9514372D01*
X4471148Y-9508579D01*
X4445819Y-9505459D01*
X4427452Y-9504865D01*
X4098164Y-9504865D01*
X4088806Y-9505013D01*
X4070980Y-9506202D01*
X4046469Y-9510213D01*
X4024632Y-9516897D01*
X4005469Y-9526256D01*
X3988980Y-9538288D01*
X3975165Y-9552995D01*
X3964024Y-9570375D01*
X3955557Y-9590429D01*
X3949763Y-9613157D01*
X3946644Y-9638559D01*
X3946050Y-9656979D01*
X3946050Y-9758096D01*
X3490586Y-9758096D01*
X3490586Y-9733036D01*
X3490806Y-9713728D01*
X3491467Y-9694876D01*
X3492568Y-9676479D01*
X3494110Y-9658539D01*
X3496851Y-9635327D01*
X3500374Y-9612926D01*
X3504682Y-9591336D01*
X3509772Y-9570556D01*
X3515645Y-9550587D01*
X3525338Y-9524017D01*
X3536061Y-9498710D01*
X3547814Y-9474667D01*
X3560598Y-9451889D01*
X3574412Y-9430374D01*
X3589257Y-9410123D01*
X3605132Y-9391136D01*
X3622037Y-9373413D01*
X3639973Y-9356954D01*
X3658939Y-9341759D01*
X3678936Y-9327828D01*
X3699963Y-9315161D01*
X3722020Y-9303758D01*
X3745108Y-9293619D01*
X3769226Y-9284744D01*
X3794375Y-9277133D01*
X3780315Y-9272130D01*
X3759876Y-9263796D01*
X3740217Y-9254464D01*
X3721339Y-9244136D01*
X3703241Y-9232810D01*
X3685924Y-9220488D01*
X3669387Y-9207169D01*
X3653631Y-9192853D01*
X3638656Y-9177540D01*
X3624461Y-9161230D01*
X3611046Y-9143923D01*
X3602582Y-9131831D01*
X3590908Y-9112863D01*
X3580464Y-9092897D01*
X3571248Y-9071935D01*
X3563261Y-9049976D01*
X3556503Y-9027020D01*
X3550974Y-9003067D01*
X3550170Y-8998403D01*
X3997048Y-8998403D01*
X3997196Y-9007761D01*
X3998381Y-9025587D01*
X4002380Y-9050098D01*
X4009045Y-9071935D01*
X4018377Y-9091098D01*
X4030375Y-9107587D01*
X4045039Y-9121402D01*
X4062369Y-9132543D01*
X4082365Y-9141010D01*
X4105027Y-9146804D01*
X4130356Y-9149923D01*
X4148722Y-9150517D01*
X4376894Y-9150517D01*
X4386226Y-9150369D01*
X4404000Y-9149180D01*
X4428440Y-9145170D01*
X4450213Y-9138485D01*
X4469321Y-9129126D01*
X4485762Y-9117094D01*
X4499537Y-9102387D01*
X4510646Y-9085007D01*
X4519089Y-9064953D01*
X4524866Y-9042225D01*
X4527976Y-9016823D01*
X4528569Y-8998403D01*
X4528569Y-8922346D01*
X4528421Y-8913014D01*
X4527236Y-8895240D01*
X4523237Y-8870800D01*
X4516571Y-8849026D01*
X4507240Y-8829919D01*
X4495242Y-8813477D01*
X4480578Y-8799702D01*
X4463248Y-8788593D01*
X4443252Y-8780150D01*
X4420590Y-8774374D01*
X4395261Y-8771263D01*
X4376894Y-8770671D01*
X4148722Y-8770671D01*
X4139391Y-8770819D01*
X4121617Y-8772004D01*
X4097177Y-8776003D01*
X4075403Y-8782669D01*
X4056296Y-8792000D01*
X4039854Y-8803998D01*
X4026079Y-8818662D01*
X4014970Y-8835992D01*
X4006527Y-8855988D01*
X4000751Y-8878650D01*
X3997640Y-8903979D01*
X3997048Y-8922346D01*
X3997048Y-8998403D01*
X3550170Y-8998403D01*
X3546673Y-8978117D01*
X3543601Y-8952171D01*
X3542236Y-8934319D01*
X3541417Y-8916024D01*
X3541144Y-8897286D01*
X3541144Y-8871787D01*
X3541599Y-8843451D01*
X3542964Y-8816036D01*
X3545240Y-8789541D01*
X3548425Y-8763966D01*
X3552521Y-8739312D01*
X3557527Y-8715579D01*
X3563444Y-8692766D01*
X3570270Y-8670873D01*
X3578006Y-8649901D01*
X3586653Y-8629850D01*
X3596210Y-8610718D01*
X3606677Y-8592508D01*
X3618055Y-8575218D01*
X3630342Y-8558848D01*
X3643540Y-8543399D01*
X3657648Y-8528870D01*
X3672724Y-8515188D01*
X3688828Y-8502389D01*
X3705958Y-8490473D01*
X3724115Y-8479439D01*
X3743300Y-8469288D01*
X3763511Y-8460019D01*
X3784749Y-8451633D01*
X3807015Y-8444130D01*
X3830307Y-8437510D01*
X3854626Y-8431772D01*
X3879972Y-8426918D01*
X3906345Y-8422945D01*
X3933745Y-8419856D01*
X3962172Y-8417649D01*
X3991626Y-8416325D01*
X4022107Y-8415884D01*
X4503510Y-8415884D01*
X4533991Y-8416325D01*
G37*
G36*
X2409958Y-10214000D02*
G01*
X2865861Y-10214000D01*
X2865861Y-8795730D01*
X3397383Y-8795730D01*
X3397383Y-8441383D01*
X1877997Y-8441383D01*
X1877997Y-8795730D01*
X2409958Y-8795730D01*
X2409958Y-10214000D01*
G37*
G36*
X1309305Y-8416339D02*
G01*
X1338809Y-8417704D01*
X1367283Y-8419979D01*
X1394726Y-8423165D01*
X1421138Y-8427261D01*
X1446520Y-8432267D01*
X1470872Y-8438183D01*
X1494193Y-8445010D01*
X1516484Y-8452746D01*
X1537745Y-8461393D01*
X1557975Y-8470950D01*
X1577175Y-8481417D01*
X1595344Y-8492794D01*
X1612483Y-8505082D01*
X1628592Y-8518280D01*
X1643670Y-8532387D01*
X1657778Y-8547466D01*
X1670976Y-8563574D01*
X1683263Y-8580713D01*
X1694641Y-8598883D01*
X1705108Y-8618082D01*
X1714665Y-8638313D01*
X1723311Y-8659573D01*
X1731048Y-8681864D01*
X1737874Y-8705185D01*
X1743791Y-8729537D01*
X1748797Y-8754919D01*
X1752892Y-8781332D01*
X1756078Y-8808775D01*
X1758354Y-8837248D01*
X1759719Y-8866752D01*
X1760174Y-8897286D01*
X1760174Y-9783595D01*
X1759719Y-9811932D01*
X1758354Y-9839353D01*
X1756078Y-9865857D01*
X1752892Y-9891443D01*
X1748797Y-9916113D01*
X1743791Y-9939865D01*
X1737874Y-9962701D01*
X1731048Y-9984619D01*
X1723311Y-10005620D01*
X1714665Y-10025704D01*
X1705108Y-10044871D01*
X1694641Y-10063122D01*
X1683263Y-10080455D01*
X1670976Y-10096871D01*
X1657778Y-10112369D01*
X1643670Y-10126951D01*
X1628592Y-10140580D01*
X1612483Y-10153330D01*
X1595344Y-10165200D01*
X1577175Y-10176191D01*
X1557975Y-10186302D01*
X1537745Y-10195535D01*
X1516484Y-10203888D01*
X1494193Y-10211362D01*
X1470872Y-10217956D01*
X1446520Y-10223672D01*
X1421138Y-10228508D01*
X1394726Y-10232464D01*
X1367283Y-10235542D01*
X1338809Y-10237740D01*
X1309305Y-10239059D01*
X1278771Y-10239498D01*
X797808Y-10239498D01*
X767274Y-10239059D01*
X737770Y-10237740D01*
X709297Y-10235542D01*
X681854Y-10232464D01*
X655441Y-10228508D01*
X630059Y-10223672D01*
X605707Y-10217956D01*
X582386Y-10211362D01*
X560095Y-10203888D01*
X538835Y-10195535D01*
X518604Y-10186302D01*
X499405Y-10176191D01*
X481235Y-10165200D01*
X464096Y-10153330D01*
X447988Y-10140580D01*
X432909Y-10126951D01*
X418802Y-10112369D01*
X405604Y-10096871D01*
X393316Y-10080455D01*
X381939Y-10063122D01*
X371472Y-10044871D01*
X361915Y-10025704D01*
X353268Y-10005620D01*
X345532Y-9984619D01*
X338705Y-9962701D01*
X332789Y-9939865D01*
X327783Y-9916113D01*
X323687Y-9891443D01*
X320501Y-9865857D01*
X318226Y-9839353D01*
X316861Y-9811932D01*
X316406Y-9783595D01*
X316406Y-9733036D01*
X772309Y-9733036D01*
X772458Y-9742368D01*
X773646Y-9760142D01*
X777657Y-9784582D01*
X784342Y-9806356D01*
X793700Y-9825463D01*
X805733Y-9841905D01*
X820439Y-9855680D01*
X837820Y-9866789D01*
X857874Y-9875232D01*
X880602Y-9881008D01*
X906004Y-9884119D01*
X924424Y-9884711D01*
X1152156Y-9884711D01*
X1161514Y-9884563D01*
X1179340Y-9883378D01*
X1203851Y-9879379D01*
X1225688Y-9872714D01*
X1244851Y-9863382D01*
X1261340Y-9851384D01*
X1275155Y-9836720D01*
X1286296Y-9819390D01*
X1294763Y-9799394D01*
X1300557Y-9776732D01*
X1303676Y-9751403D01*
X1304270Y-9733036D01*
X1304270Y-9454307D01*
X1291693Y-9452912D01*
X1270997Y-9450537D01*
X1252074Y-9448298D01*
X1231627Y-9445823D01*
X1214172Y-9443673D01*
X1195742Y-9441372D01*
X1176336Y-9438919D01*
X1171320Y-9438297D01*
X1150945Y-9436006D01*
X1130076Y-9434031D01*
X1108712Y-9432372D01*
X1086854Y-9431029D01*
X1064501Y-9430002D01*
X1041654Y-9429291D01*
X1018312Y-9428896D01*
X1000481Y-9428808D01*
X861116Y-9428808D01*
X849485Y-9429430D01*
X830173Y-9433688D01*
X812947Y-9441980D01*
X797808Y-9454307D01*
X789143Y-9464301D01*
X779506Y-9480917D01*
X773903Y-9499479D01*
X772309Y-9517614D01*
X772309Y-9733036D01*
X316406Y-9733036D01*
X316406Y-9454307D01*
X316813Y-9433032D01*
X318034Y-9412294D01*
X320069Y-9392091D01*
X322918Y-9372424D01*
X326581Y-9353293D01*
X331058Y-9334698D01*
X336349Y-9316638D01*
X342454Y-9299115D01*
X349373Y-9282127D01*
X357106Y-9265675D01*
X365654Y-9249759D01*
X375015Y-9234378D01*
X385190Y-9219533D01*
X396179Y-9205225D01*
X407982Y-9191452D01*
X420600Y-9178214D01*
X433835Y-9165650D01*
X447603Y-9153897D01*
X461903Y-9142954D01*
X476736Y-9132822D01*
X492101Y-9123500D01*
X507998Y-9114989D01*
X524428Y-9107289D01*
X541390Y-9100399D01*
X558884Y-9094319D01*
X576911Y-9089051D01*
X595470Y-9084592D01*
X614562Y-9080945D01*
X634186Y-9078108D01*
X654342Y-9076081D01*
X675031Y-9074865D01*
X696252Y-9074460D01*
X873866Y-9074460D01*
X897185Y-9074658D01*
X920982Y-9075250D01*
X945257Y-9076238D01*
X970009Y-9077620D01*
X995238Y-9079397D01*
X1020945Y-9081570D01*
X1047129Y-9084137D01*
X1073790Y-9087100D01*
X1100930Y-9090457D01*
X1128546Y-9094209D01*
X1156640Y-9098357D01*
X1185211Y-9102899D01*
X1214260Y-9107836D01*
X1243786Y-9113169D01*
X1273789Y-9118896D01*
X1304270Y-9125018D01*
X1304270Y-8897286D01*
X1304119Y-8889496D01*
X1301852Y-8867611D01*
X1296865Y-8847951D01*
X1289158Y-8830516D01*
X1278730Y-8815308D01*
X1265582Y-8802325D01*
X1249714Y-8791567D01*
X1231126Y-8783036D01*
X1209817Y-8776730D01*
X1185788Y-8772649D01*
X1168258Y-8771165D01*
X1149518Y-8770671D01*
X1144144Y-8770676D01*
X1122341Y-8770789D01*
X1100043Y-8771053D01*
X1077251Y-8771469D01*
X1053964Y-8772036D01*
X1036174Y-8772560D01*
X1018106Y-8773169D01*
X999760Y-8773863D01*
X981135Y-8774643D01*
X962233Y-8775507D01*
X954644Y-8776161D01*
X935626Y-8777752D01*
X916545Y-8779278D01*
X897399Y-8780740D01*
X878188Y-8782137D01*
X858913Y-8783471D01*
X839574Y-8784739D01*
X823520Y-8785667D01*
X801888Y-8786961D01*
X783331Y-8788105D01*
X763660Y-8789345D01*
X742877Y-8790681D01*
X720981Y-8792113D01*
X697972Y-8793641D01*
X679986Y-8794851D01*
X667622Y-8795625D01*
X648466Y-8796806D01*
X628575Y-8798011D01*
X607951Y-8799238D01*
X586592Y-8800489D01*
X564499Y-8801763D01*
X541672Y-8803060D01*
X518110Y-8804380D01*
X493815Y-8805723D01*
X468785Y-8807090D01*
X443021Y-8808480D01*
X443021Y-8466882D01*
X473437Y-8463744D01*
X503576Y-8460706D01*
X533437Y-8457768D01*
X563021Y-8454929D01*
X592328Y-8452190D01*
X621358Y-8449550D01*
X650110Y-8447010D01*
X678584Y-8444570D01*
X706782Y-8442229D01*
X734701Y-8439988D01*
X762344Y-8437847D01*
X789709Y-8435805D01*
X816797Y-8433862D01*
X843608Y-8432020D01*
X870141Y-8430277D01*
X896397Y-8428633D01*
X922375Y-8427089D01*
X948077Y-8425645D01*
X973500Y-8424300D01*
X998647Y-8423055D01*
X1023516Y-8421910D01*
X1048108Y-8420864D01*
X1072422Y-8419918D01*
X1096459Y-8419071D01*
X1120219Y-8418324D01*
X1143701Y-8417677D01*
X1166906Y-8417129D01*
X1189834Y-8416681D01*
X1212484Y-8416332D01*
X1234857Y-8416083D01*
X1256953Y-8415933D01*
X1278771Y-8415884D01*
X1309305Y-8416339D01*
G37*
D12*
%TO.C,HOLE\u002A\u002A*%
X-20940Y-2190000D02*
G75*
G03*
X-1820940Y-2190000I-900000J0D01*
G01*
X-1820940Y-2190000D02*
G75*
G03*
X-20940Y-2190000I900000J0D01*
G01*
X64239060Y-2190000D02*
G75*
G03*
X62439060Y-2190000I-900000J0D01*
G01*
X62439060Y-2190000D02*
G75*
G03*
X64239060Y-2190000I900000J0D01*
G01*
X64190000Y-18130000D02*
G75*
G03*
X62390000Y-18130000I-900000J0D01*
G01*
X62390000Y-18130000D02*
G75*
G03*
X64190000Y-18130000I900000J0D01*
G01*
X-70000Y-18130000D02*
G75*
G03*
X-1870000Y-18130000I-900000J0D01*
G01*
X-1870000Y-18130000D02*
G75*
G03*
X-70000Y-18130000I900000J0D01*
G01*
D13*
%TO.C,J1*%
X61749060Y-12130D02*
X61749060Y-2672130D01*
X3269060Y-12130D02*
X61749060Y-12130D01*
X3269060Y-12130D02*
X3269060Y-2672130D01*
X1999060Y-12130D02*
X669060Y-12130D01*
X669060Y-12130D02*
X669060Y-1342130D01*
X3269060Y-2672130D02*
X61749060Y-2672130D01*
%TO.C,J2*%
X61749060Y-17652130D02*
X61749060Y-20312130D01*
X3269060Y-17652130D02*
X61749060Y-17652130D01*
X3269060Y-17652130D02*
X3269060Y-20312130D01*
X1999060Y-17652130D02*
X669060Y-17652130D01*
X669060Y-17652130D02*
X669060Y-18982130D01*
X3269060Y-20312130D02*
X61749060Y-20312130D01*
%TD*%
%LPC*%
D14*
%TO.C,J3*%
X63960000Y-6367130D03*
D15*
X63960000Y-8907130D03*
X63960000Y-11447130D03*
X63960000Y-13987130D03*
%TD*%
D16*
%TO.C,HOLE\u002A\u002A*%
X-920940Y-2190000D03*
%TD*%
%TO.C,HOLE\u002A\u002A*%
X63339060Y-2190000D03*
%TD*%
%TO.C,HOLE\u002A\u002A*%
X63290000Y-18130000D03*
%TD*%
D17*
%TO.C,USB1*%
X2568060Y-7282130D03*
X2568060Y-13062130D03*
D18*
X3068060Y-5847130D03*
X3068060Y-14497130D03*
D19*
X-1131940Y-5847130D03*
X-1131940Y-14497130D03*
%TD*%
D16*
%TO.C,HOLE\u002A\u002A*%
X-970000Y-18130000D03*
%TD*%
D14*
%TO.C,J1*%
X1999060Y-1342130D03*
D15*
X4539060Y-1342130D03*
X7079060Y-1342130D03*
X9619060Y-1342130D03*
X12159060Y-1342130D03*
X14699060Y-1342130D03*
X17239060Y-1342130D03*
X19779060Y-1342130D03*
X22319060Y-1342130D03*
X24859060Y-1342130D03*
X27399060Y-1342130D03*
X29939060Y-1342130D03*
X32479060Y-1342130D03*
X35019060Y-1342130D03*
X37559060Y-1342130D03*
X40099060Y-1342130D03*
X42639060Y-1342130D03*
X45179060Y-1342130D03*
X47719060Y-1342130D03*
X50259060Y-1342130D03*
X52799060Y-1342130D03*
X55339060Y-1342130D03*
X57879060Y-1342130D03*
X60419060Y-1342130D03*
%TD*%
D14*
%TO.C,J2*%
X1999060Y-18982130D03*
D15*
X4539060Y-18982130D03*
X7079060Y-18982130D03*
X9619060Y-18982130D03*
X12159060Y-18982130D03*
X14699060Y-18982130D03*
X17239060Y-18982130D03*
X19779060Y-18982130D03*
X22319060Y-18982130D03*
X24859060Y-18982130D03*
X27399060Y-18982130D03*
X29939060Y-18982130D03*
X32479060Y-18982130D03*
X35019060Y-18982130D03*
X37559060Y-18982130D03*
X40099060Y-18982130D03*
X42639060Y-18982130D03*
X45179060Y-18982130D03*
X47719060Y-18982130D03*
X50259060Y-18982130D03*
X52799060Y-18982130D03*
X55339060Y-18982130D03*
X57879060Y-18982130D03*
X60419060Y-18982130D03*
%TD*%
%LPD*%
M02*
